<svg width="229" height="69" viewBox="0 0 229 69" fill="none" xmlns="http://www.w3.org/2000/svg">
<path d="M54.4361 32.1752C54.3777 32.2592 54.3631 32.3515 54.3924 32.4524C54.4215 32.5364 54.4215 32.6204 54.3924 32.7044C54.334 32.7885 54.2465 32.8641 54.1299 32.9313C54.0425 32.9818 54.028 33.0574 54.0862 33.1582C54.028 33.1918 53.9405 33.2421 53.8238 33.3095C53.7072 33.3766 53.5906 33.4523 53.4739 33.5363C53.3573 33.6035 53.2552 33.6707 53.1677 33.7379C53.0802 33.8052 53.0365 33.8472 53.0365 33.864C52.8324 33.8975 52.6575 33.9564 52.5116 34.0404C52.3659 34.1076 52.2201 34.1832 52.0744 34.2673C52.016 34.2841 51.9432 34.3008 51.8557 34.3176C51.7682 34.3176 51.7099 34.3429 51.6807 34.3933C51.5349 34.3933 51.4183 34.4185 51.3308 34.4689C51.2725 34.5194 51.185 34.5613 51.0684 34.595C50.9518 34.6285 50.8497 34.6538 50.7624 34.6706C50.6748 34.6874 50.5728 34.7209 50.4561 34.7714C50.3104 34.7546 50.1208 34.763 49.8875 34.7966C49.6252 34.8639 49.4065 34.9311 49.2314 34.9983C49.0857 34.9646 48.9836 34.9646 48.9254 34.9983C48.867 35.0151 48.7795 35.0402 48.663 35.0739C48.4298 35.0739 48.2838 35.0823 48.2256 35.0991C48.1965 35.1158 48.1527 35.1327 48.0944 35.1495C47.8319 35.2167 47.657 35.2419 47.5695 35.2251C47.482 35.2083 47.4238 35.2335 47.3947 35.3007C47.1614 35.3007 46.9427 35.3091 46.7385 35.326C46.5637 35.326 46.3595 35.3175 46.1263 35.3007C45.8639 35.2839 45.7034 35.2839 45.6452 35.3007C45.5868 35.3175 45.5286 35.326 45.4702 35.326C45.412 35.326 45.2953 35.3344 45.1203 35.3511C44.9454 35.3511 44.7413 35.3511 44.508 35.3511C44.3039 35.3511 44.1143 35.3511 43.9394 35.3511C43.7646 35.3344 43.6625 35.326 43.6332 35.326C43.2833 35.2419 43.0501 35.1999 42.9334 35.1999C42.8168 35.1831 42.6856 35.1579 42.5399 35.1242C42.4524 35.1074 42.3212 35.0739 42.1463 35.0234C42.0004 34.973 41.8401 34.9227 41.6653 34.8722C41.4902 34.8218 41.3152 34.7797 41.1403 34.7462C40.9946 34.6958 40.8925 34.6538 40.8341 34.6201C40.4842 34.5194 40.2657 34.4269 40.1782 34.3429C40.0907 34.2589 39.9449 34.2085 39.7408 34.1917C39.7699 34.158 39.7117 34.1076 39.5659 34.0404C39.4491 33.9564 39.3763 33.9228 39.3472 33.9396C39.3472 33.8556 39.2306 33.7212 38.9973 33.5363C38.7932 33.3346 38.6329 33.2086 38.5161 33.1582C38.487 33.0237 38.4142 32.9229 38.2976 32.8557C38.21 32.7717 38.0934 32.6876 37.9477 32.6036C37.9184 32.4524 37.8456 32.3096 37.729 32.1752C37.6123 32.0239 37.5539 31.8643 37.5539 31.6963C37.5248 31.6289 37.4812 31.587 37.4227 31.5702C37.3936 31.5533 37.3645 31.5198 37.3352 31.4693C37.2479 31.2005 37.204 31.066 37.204 31.066C37.1749 30.898 37.1458 30.8139 37.1165 30.8139C37.0874 30.7972 37.0729 30.7804 37.0729 30.7636C37.0437 30.7132 37.0292 30.6543 37.0292 30.5871C37.0292 30.5031 37.0292 30.4443 37.0292 30.4106C37.0874 30.2594 37.102 30.1671 37.0729 30.1334C37.0729 30.0998 37.0729 30.0662 37.0729 30.0326C37.102 29.8477 37.0874 29.7133 37.0292 29.6293C36.9708 29.5453 37.0001 29.4528 37.1165 29.3521C37.0583 29.2007 37.0437 29.1167 37.0729 29.1C37.102 29.0663 37.1165 29.0327 37.1165 28.9991C37.1165 28.8311 37.1313 28.7218 37.1604 28.6714C37.2186 28.6211 37.277 28.5706 37.3352 28.5202C37.3645 28.4698 37.4082 28.3941 37.4666 28.2934C37.5248 28.1757 37.5685 28.0917 37.5978 28.0413C37.656 27.8901 37.6999 27.7304 37.729 27.5624C37.7872 27.3775 37.8602 27.2095 37.9477 27.0582C38.0934 26.8398 38.1809 26.7137 38.21 26.6802C38.3558 26.5457 38.4724 26.4281 38.5599 26.3273C38.6766 26.2096 38.8077 26.1088 38.9535 26.0248C39.0119 25.9743 39.0701 25.9324 39.1285 25.8987C39.2159 25.8652 39.2888 25.8231 39.3472 25.7727C39.4639 25.6887 39.5512 25.6131 39.6096 25.5459C39.6971 25.4786 39.8283 25.4282 40.0032 25.3946C40.0907 25.3105 40.1489 25.2518 40.1782 25.2182C40.2073 25.1677 40.3094 25.1258 40.4842 25.0921C40.6884 25.0081 40.8341 24.9157 40.9216 24.8149C41.0383 24.7141 41.2424 24.6469 41.5339 24.6132C41.6505 24.5292 41.7526 24.462 41.8401 24.4116C41.9567 24.3443 42.117 24.3024 42.3212 24.2855C42.6711 24.1847 42.8752 24.1006 42.9334 24.0335C42.9919 23.9662 43.0939 23.8991 43.2397 23.8318C43.3854 23.8318 43.502 23.815 43.5896 23.7814C43.6771 23.7478 43.7791 23.7226 43.8958 23.7058C44.3039 23.6722 44.7413 23.6638 45.2078 23.6806C45.7034 23.6806 46.1554 23.6806 46.5637 23.6806C46.9718 23.731 47.2196 23.7478 47.3071 23.731C47.4238 23.6973 47.555 23.6973 47.7007 23.731C47.8464 23.7647 47.9778 23.7982 48.0944 23.8318C48.2111 23.8654 48.3423 23.8991 48.488 23.9326C48.7212 23.9326 48.8963 23.9578 49.0127 24.0083C49.1587 24.0419 49.3628 24.0419 49.6252 24.0083C49.8293 24.0922 49.9312 24.1427 49.9312 24.1595C49.9605 24.1763 50.0042 24.1931 50.0626 24.2099C50.4416 24.2771 50.7476 24.3611 50.9809 24.462C51.2141 24.546 51.3746 24.6132 51.4621 24.6636C51.5204 24.7981 51.5786 24.8821 51.637 24.9157C51.6954 24.9493 51.7682 24.9746 51.8557 24.9913C51.9139 25.0417 51.9432 25.1005 51.9432 25.1677C51.9432 25.2349 52.016 25.277 52.1619 25.2938C52.1326 25.3946 52.1472 25.4703 52.2056 25.5207C52.2931 25.571 52.3659 25.6382 52.4243 25.7223C52.57 25.8399 52.6721 25.9324 52.7303 25.9996C52.7887 26.05 52.8178 26.1171 52.8178 26.2012C52.8178 26.2348 52.8469 26.2769 52.9054 26.3273C52.9929 26.3608 53.0511 26.3945 53.0802 26.4281C53.1677 26.5793 53.1968 26.6634 53.1677 26.6802C53.1386 26.6969 53.1386 26.7222 53.1677 26.7558C53.2261 26.823 53.2844 26.8818 53.3428 26.9322C53.401 26.9658 53.4446 27.0079 53.4739 27.0582C53.5322 27.1423 53.5467 27.2263 53.5176 27.3103C53.5176 27.3944 53.5467 27.4784 53.6051 27.5624C53.6634 27.68 53.7218 27.8061 53.78 27.9405C53.8384 28.0749 53.9112 28.1925 53.9987 28.2934C53.9987 28.4614 54.0132 28.5538 54.0425 28.5706C54.0717 28.5706 54.0862 28.5874 54.0862 28.6211C54.0571 28.6378 54.0132 28.6883 53.955 28.7723C53.9259 28.8395 53.8966 28.8731 53.8675 28.8731C53.9841 29.0076 53.9987 29.1167 53.9112 29.2007L53.5615 29.4277C53.4446 29.4444 53.2844 29.4949 53.0802 29.5789C52.9054 29.6461 52.8033 29.7133 52.7742 29.7805C52.5409 29.7973 52.3804 29.7973 52.2931 29.7805C52.2347 29.7637 52.1619 29.7637 52.0744 29.7805C51.8118 29.8477 51.6224 29.8813 51.5058 29.8813C51.3892 29.8813 51.258 29.8982 51.1121 29.9317C51.0247 29.8982 50.9227 29.8813 50.806 29.8813C50.6894 29.8813 50.5873 29.8729 50.4998 29.8561C50.2374 29.8561 50.0917 29.8477 50.0626 29.831C50.0333 29.8142 49.9896 29.8057 49.9312 29.8057C49.7855 29.8057 49.6397 29.8142 49.494 29.831C49.3774 29.831 49.246 29.831 49.1002 29.831C49.0127 29.831 48.9254 29.831 48.8379 29.831C48.7795 29.8142 48.7067 29.8057 48.6192 29.8057C48.415 29.8226 48.2693 29.8226 48.1818 29.8057C48.0944 29.7889 48.0069 29.7805 47.9194 29.7805C47.7445 29.7805 47.5695 29.7889 47.3947 29.8057C47.2487 29.8226 47.0884 29.831 46.9134 29.831C46.4762 29.831 46.0388 29.7973 45.6014 29.7301C45.1641 29.6461 44.7413 29.6124 44.333 29.6293C44.2748 29.6293 44.2018 29.6377 44.1143 29.6545C44.027 29.6545 43.954 29.6545 43.8958 29.6545C43.6332 29.604 43.4729 29.5873 43.4145 29.604C43.3563 29.6209 43.2981 29.6293 43.2397 29.6293C43.0939 29.6293 42.948 29.6209 42.8023 29.604C42.6565 29.5705 42.5108 29.5621 42.365 29.5789C42.2775 29.5789 42.2046 29.5873 42.1463 29.604C42.0879 29.604 42.015 29.6124 41.9276 29.6293C41.7817 29.6461 41.636 29.6461 41.4902 29.6293C41.3736 29.6124 41.2424 29.604 41.0967 29.604C40.8634 29.604 40.6302 29.6209 40.3969 29.6545C40.1927 29.6713 39.974 29.6713 39.7408 29.6545C39.6824 29.7049 39.6678 29.7637 39.6971 29.831C39.7262 29.8982 39.7408 29.957 39.7408 30.0073C39.7408 30.209 39.7553 30.335 39.7844 30.3855C39.8137 30.4359 39.8429 30.4947 39.872 30.562C39.9011 30.5955 39.9011 30.646 39.872 30.7132C39.872 30.7636 39.8865 30.8056 39.9156 30.8392C39.9449 30.8897 39.974 30.94 40.0032 30.9904C40.0324 31.0241 40.0616 31.0576 40.0907 31.0912C40.0907 31.2593 40.1198 31.4105 40.1782 31.5449C40.2657 31.6626 40.353 31.7886 40.4406 31.9231C40.5281 32.0575 40.6154 32.1836 40.7029 32.3011C40.7904 32.4188 40.8634 32.486 40.9216 32.5029C40.98 32.5869 41.0092 32.6709 41.0092 32.7549C41.0092 32.8221 41.0967 32.8809 41.2715 32.9313C41.4173 32.9986 41.5048 33.0574 41.5339 33.1077C41.5632 33.1414 41.6069 33.175 41.6653 33.2086C41.7817 33.3095 41.8547 33.3598 41.8838 33.3598C41.9422 33.343 42.0004 33.3851 42.0588 33.4858C42.4087 33.5363 42.6129 33.6035 42.6711 33.6875C42.7586 33.7379 42.8168 33.7715 42.8461 33.7884C42.9043 33.7884 42.9627 33.8052 43.021 33.8387C43.3417 33.8052 43.5459 33.8135 43.6332 33.864C43.7207 33.9143 43.881 33.9564 44.1143 33.99C44.2311 34.0068 44.4496 34.0152 44.7704 34.0152C45.0912 34.0152 45.4265 34.0152 45.7764 34.0152C46.1263 33.9984 46.4616 33.9816 46.7822 33.9648C47.103 33.9312 47.3217 33.9059 47.4383 33.8891C47.934 33.7884 48.3277 33.7295 48.6192 33.7128C48.9108 33.6791 49.1878 33.6203 49.4501 33.5363C49.7125 33.4523 49.8875 33.4102 49.9751 33.4102C50.0917 33.4102 50.2083 33.3935 50.325 33.3598C50.3832 33.3262 50.4123 33.301 50.4123 33.2842C50.4416 33.2674 50.5582 33.2506 50.7624 33.2338C50.7915 33.217 50.8642 33.1665 50.9809 33.0825C51.0975 32.9986 51.2141 32.9146 51.3308 32.8305C51.4767 32.7297 51.5933 32.6373 51.6807 32.5532C51.7973 32.4692 51.8702 32.4104 51.8994 32.3768C51.9869 32.3264 52.0744 32.2843 52.1619 32.2508C52.2784 32.2003 52.3368 32.1331 52.3368 32.0491C52.57 32.0155 52.7303 31.9315 52.8178 31.797C52.9636 31.797 53.0949 31.7803 53.2114 31.7466C53.3282 31.713 53.4594 31.6794 53.6051 31.6458C53.7218 31.6626 53.8093 31.6963 53.8675 31.7466C53.9259 31.7803 54.0132 31.8138 54.1299 31.8475C54.1883 31.8978 54.2319 31.9482 54.2612 31.9987C54.3195 32.0491 54.3777 32.108 54.4361 32.1752ZM51.637 28.3185C51.6661 28.201 51.637 28.1001 51.5495 28.0161C51.4621 27.9152 51.4037 27.8061 51.3746 27.6884C51.258 27.5203 51.1559 27.3607 51.0684 27.2095C50.9809 27.0414 50.9081 26.9237 50.8497 26.8566C50.7915 26.7893 50.7185 26.739 50.631 26.7053C50.5437 26.6718 50.5144 26.6129 50.5437 26.5289C50.4852 26.5289 50.3686 26.4448 50.1938 26.2769C50.0187 26.1088 49.9167 26.008 49.8875 25.9743C49.7418 25.8399 49.5961 25.7559 49.4501 25.7223C49.3919 25.6887 49.3481 25.6467 49.319 25.5963C49.319 25.5459 49.2607 25.5123 49.1441 25.4954C48.94 25.445 48.7504 25.403 48.5755 25.3694C48.4005 25.3358 48.2838 25.2938 48.2256 25.2434C48.109 25.2434 48.0069 25.2349 47.9194 25.2182C47.8612 25.2014 47.7882 25.2014 47.7007 25.2182C47.2635 25.0837 46.9427 25.0165 46.7385 25.0165C46.5637 25.0165 46.3741 25.0333 46.17 25.0669C46.1117 25.0165 45.9658 24.9913 45.7325 24.9913C45.5286 24.9746 45.3827 24.983 45.2953 25.0165C45.2078 25.0333 45.1203 25.0417 45.0328 25.0417C44.9454 25.0249 44.8579 25.0165 44.7704 25.0165C44.7122 25.0669 44.6247 25.0921 44.508 25.0921C44.4205 25.0921 44.3476 25.109 44.2893 25.1426C44.1436 25.1761 44.0124 25.2265 43.8958 25.2938C43.8083 25.3442 43.6771 25.3526 43.502 25.319C43.3854 25.403 43.3126 25.445 43.2833 25.445C43.2542 25.445 43.1813 25.4619 43.0648 25.4954C42.9189 25.5963 42.8316 25.6467 42.8023 25.6467C42.7731 25.6467 42.7295 25.6551 42.6711 25.6719C42.5836 25.7055 42.5108 25.7559 42.4524 25.8231C42.4233 25.8736 42.3796 25.9156 42.3212 25.9492C42.2046 26.0332 41.9859 26.176 41.6653 26.3776C41.3736 26.5625 41.1549 26.6802 41.0092 26.7306C40.9507 26.8146 40.8925 26.8986 40.8341 26.9826C40.7759 27.0667 40.6884 27.1507 40.5717 27.2347C40.4551 27.3691 40.3385 27.5372 40.2219 27.7389C40.1343 27.9405 40.1052 28.0581 40.1343 28.0917C40.1636 28.1085 40.2364 28.1253 40.353 28.1422C40.499 28.1422 40.6593 28.1505 40.8341 28.1673C41.0092 28.1673 41.1694 28.1673 41.3152 28.1673C41.4611 28.1673 41.5632 28.1673 41.6214 28.1673C42.0588 28.1001 42.3796 28.0749 42.5836 28.0917C42.7877 28.0917 42.9919 28.0749 43.196 28.0413C43.4584 28.1085 43.6332 28.1253 43.7207 28.0917C43.8083 28.0581 43.954 28.0413 44.1581 28.0413C44.3914 28.0413 44.6538 28.0581 44.9454 28.0917C45.266 28.1253 45.4556 28.1505 45.5138 28.1673C46.2136 28.2513 46.797 28.3185 47.2635 28.369C47.73 28.4025 48.1818 28.3774 48.6192 28.2934C48.7067 28.3438 48.7942 28.3606 48.8815 28.3438C48.9691 28.3269 49.0711 28.3185 49.1878 28.3185C49.2169 28.3522 49.2898 28.369 49.4065 28.369C49.5231 28.369 49.6543 28.369 49.8 28.369C49.9458 28.3522 50.0771 28.3438 50.1938 28.3438C50.3395 28.3269 50.4416 28.3185 50.4998 28.3185C50.6748 28.3018 50.8642 28.3101 51.0684 28.3438C51.2725 28.3606 51.4621 28.3522 51.637 28.3185ZM80.7652 34.7462C80.7359 34.7966 80.6923 34.847 80.6341 34.8974C80.6048 34.9311 80.5756 34.973 80.5465 35.0234C80.1091 35.1747 79.8759 35.2923 79.8468 35.3763C79.8176 35.4435 79.6281 35.5024 79.2782 35.5528C79.1324 35.5528 78.9867 35.5696 78.8408 35.6032C78.7241 35.62 78.6366 35.6452 78.5784 35.6788C78.5202 35.662 78.4181 35.6536 78.2722 35.6536C78.1264 35.6536 77.9661 35.662 77.7911 35.6788C77.6162 35.6788 77.4558 35.6872 77.31 35.704C77.1643 35.704 77.0768 35.6872 77.0476 35.6536C76.7853 35.704 76.6541 35.7208 76.6541 35.704C76.6541 35.6872 76.552 35.6705 76.3479 35.6536C75.998 35.6872 75.7502 35.6956 75.6042 35.6788C75.4878 35.662 75.3564 35.6536 75.2107 35.6536C75.1525 35.6536 75.0795 35.6705 74.992 35.704C74.9045 35.7208 74.8317 35.7293 74.7733 35.7293C74.3361 35.7293 73.9714 35.7544 73.68 35.8049C73.4176 35.8552 73.1698 35.8301 72.9365 35.7293C72.5573 35.6956 72.3241 35.6536 72.2367 35.6032C72.1492 35.536 72.0617 35.4688 71.9742 35.4016C71.9742 35.3175 71.9889 35.2419 72.018 35.1747C72.0471 35.1074 72.0471 35.0318 72.018 34.9478C72.1638 34.8806 72.2658 34.7966 72.3241 34.6958C72.3825 34.5781 72.4261 34.4689 72.4554 34.3681C72.776 34.3513 73.1114 34.3429 73.4613 34.3429C73.8111 34.3429 74.1174 34.2925 74.3797 34.1917H74.9045C75.0213 34.074 75.0795 33.99 75.0795 33.9396C75.1086 33.8724 75.1232 33.8052 75.1232 33.7379C75.1232 33.6875 75.1086 33.6454 75.0795 33.6119C75.0504 33.5615 75.0213 33.511 74.992 33.4607C74.992 33.3766 74.992 33.301 74.992 33.2338C75.0213 33.1665 75.0213 33.0909 74.992 33.0069C74.992 32.9229 74.9483 32.7717 74.8608 32.5532C74.8026 32.318 74.788 32.1667 74.8171 32.0996C74.9045 31.9147 74.9338 31.7719 74.9045 31.671C74.8754 31.5702 74.8608 31.4777 74.8608 31.3937C74.8608 31.3097 74.8754 31.2341 74.9045 31.1669C74.9338 31.0828 74.9483 30.9988 74.9483 30.9148C74.9483 30.8812 74.9338 30.8476 74.9045 30.8139C74.8754 30.7636 74.8608 30.7132 74.8608 30.6627C74.8317 30.5787 74.8317 30.5031 74.8608 30.4359C74.8899 30.3519 74.8899 30.2678 74.8608 30.1838C74.8317 30.0998 74.788 30.0326 74.7296 29.9822C74.6712 29.915 74.6275 29.8477 74.5984 29.7805C74.5693 29.6124 74.5255 29.5033 74.4673 29.4528C74.438 29.4024 74.4088 29.3521 74.3797 29.3016C74.3215 29.1672 74.2777 29.0495 74.2485 28.9488C74.2485 28.8311 74.1465 28.7302 73.9423 28.6462L73.4613 28.0917C73.403 28.0413 73.3592 27.9824 73.3301 27.9152C73.301 27.848 73.2571 27.7808 73.1989 27.7136C73.0822 27.6296 72.9365 27.5624 72.7615 27.5119C72.6157 27.4447 72.47 27.3859 72.3241 27.3355C72.2658 27.3019 72.1492 27.2935 71.9742 27.3103C71.7993 27.3103 71.6681 27.3019 71.5806 27.2851C71.2891 27.2514 70.9975 27.2179 70.7058 27.1842C70.4434 27.1507 70.1665 27.2011 69.8748 27.3355C69.7291 27.3355 69.5834 27.3355 69.4376 27.3355C69.321 27.3187 69.2044 27.3439 69.0877 27.4112C68.767 27.4951 68.5628 27.5456 68.4753 27.5624C68.388 27.5624 68.2859 27.5875 68.1693 27.638C67.7027 27.722 67.3383 27.7977 67.0757 27.8648C66.8134 27.9152 66.5801 27.9908 66.376 28.0917C66.0845 28.1085 65.8074 28.1925 65.545 28.3438C65.5159 28.3606 65.4429 28.3774 65.3263 28.3941C65.239 28.3941 65.166 28.3941 65.1076 28.3941C64.6995 28.5118 64.4226 28.6127 64.2766 28.6967C63.8976 28.7974 63.6353 28.8899 63.4895 28.9739C63.3729 29.0579 63.2415 29.1084 63.0958 29.1251C62.9792 29.226 62.8625 29.2765 62.7459 29.2765C62.6877 29.3436 62.6002 29.4024 62.4835 29.4528C62.3669 29.4865 62.2794 29.5368 62.2212 29.604C62.2212 29.7049 62.2648 29.8057 62.3523 29.9066C62.3815 30.0746 62.4106 30.1754 62.4399 30.209C62.469 30.2259 62.4835 30.251 62.4835 30.2846C62.4835 30.419 62.4399 30.6039 62.3523 30.8392C62.2939 31.0744 62.2939 31.2341 62.3523 31.3181C62.3523 31.3686 62.3378 31.4274 62.3085 31.4945C62.3085 31.5449 62.3669 31.587 62.4835 31.6205C62.4253 31.7719 62.396 31.9482 62.396 32.1499C62.396 32.3348 62.4835 32.486 62.6586 32.6036C62.6002 32.7381 62.5856 32.8137 62.6147 32.8305C62.6438 32.8473 62.6438 32.9062 62.6147 33.0069C62.7313 33.1582 62.8043 33.2506 62.8334 33.2842C62.8625 33.3179 62.8918 33.3514 62.9209 33.3851C63.0958 33.4019 63.2563 33.3766 63.402 33.3095C63.5477 33.3095 63.6644 33.301 63.7519 33.2842C63.8685 33.2506 63.9997 33.2254 64.1454 33.2086C64.2914 33.1918 64.4371 33.2002 64.5829 33.2338C64.7286 33.2506 64.8743 33.2421 65.0203 33.2086C65.166 33.2421 65.2681 33.2842 65.3263 33.3346C65.4138 33.3851 65.545 33.4019 65.72 33.3851C65.8658 33.5363 66.0261 33.6287 66.2011 33.6623C66.2302 33.7463 66.2886 33.8052 66.376 33.8387C66.4926 33.8724 66.551 33.9312 66.551 34.0152C66.5801 34.0824 66.551 34.1245 66.4635 34.1412C66.376 34.1412 66.3614 34.1832 66.4198 34.2673C66.2739 34.2673 66.172 34.3008 66.1136 34.3681C66.0554 34.4353 65.9533 34.4773 65.8074 34.4941C65.7492 34.5781 65.6471 34.6285 65.5013 34.6453C65.3556 34.6453 65.2681 34.6874 65.239 34.7714C65.093 34.7546 64.9764 34.7714 64.8891 34.8218C64.8307 34.8554 64.7286 34.889 64.5829 34.9227C64.5829 34.9227 64.5099 34.9227 64.3642 34.9227C64.2475 34.9227 64.1163 34.9227 63.9706 34.9227C63.8249 34.9227 63.6935 34.9311 63.5769 34.9478C63.4602 34.9478 63.3875 34.9478 63.3583 34.9478C63.2999 34.9478 63.227 34.9646 63.1396 34.9983C63.0812 35.0151 63.0083 35.0234 62.9209 35.0234C62.6586 35.0571 62.396 35.0739 62.1336 35.0739C61.8713 35.0571 61.6087 35.0655 61.3463 35.0991C61.2006 35.1158 61.011 35.1411 60.7778 35.1747C60.6029 35.2083 60.4279 35.2251 60.253 35.2251C60.078 35.2083 59.9177 35.2167 59.7719 35.2503C59.4803 35.3007 59.3345 35.326 59.3345 35.326C59.3345 35.3091 59.3054 35.3007 59.247 35.3007C58.9555 35.3511 58.7805 35.3679 58.7223 35.3511C58.6639 35.3344 58.6056 35.326 58.5472 35.326C58.4015 35.326 58.2412 35.3344 58.0662 35.3511C57.8913 35.3511 57.7308 35.3511 57.5851 35.3511C57.3227 35.3175 57.0749 35.2923 56.8416 35.2755C56.6375 35.2419 56.5209 35.2335 56.4918 35.2503C56.4625 35.183 56.4188 35.1327 56.3606 35.0991C56.3022 35.0486 56.2438 34.9983 56.1855 34.9478C56.2438 34.8806 56.3313 34.7966 56.4479 34.6958C56.5063 34.4941 56.5645 34.3345 56.6229 34.2168C56.7103 34.0824 56.8123 33.9984 56.929 33.9648C57.0456 33.9312 57.2206 33.9143 57.4539 33.9143C57.6872 33.8975 57.8766 33.8808 58.0225 33.864C58.2558 33.8135 58.3869 33.7968 58.416 33.8135C58.4745 33.8135 58.5327 33.8135 58.5911 33.8135C58.6784 33.7968 58.7659 33.7799 58.8535 33.7631C58.9701 33.7463 59.0722 33.7295 59.1597 33.7128C59.247 33.6959 59.3929 33.6875 59.5969 33.6875C59.801 33.6875 59.9322 33.6707 59.9906 33.6371C60.078 33.5698 60.0927 33.4858 60.0343 33.3851C59.9759 33.2674 59.9759 33.1834 60.0343 33.133C59.9759 32.8473 59.9177 32.6288 59.8595 32.4776C59.8302 32.3264 59.8156 32.1752 59.8156 32.0239C59.8156 31.9735 59.8302 31.9231 59.8595 31.8726C59.8886 31.8222 59.8886 31.7719 59.8595 31.7214C59.8595 31.6878 59.8447 31.6542 59.8156 31.6205C59.7865 31.5702 59.7719 31.5198 59.7719 31.4693C59.7719 31.4358 59.7719 31.3265 59.7719 31.1416C59.801 30.94 59.8156 30.8139 59.8156 30.7636C59.8447 30.7132 59.874 30.6627 59.9031 30.6123C59.9322 30.562 59.9468 30.5115 59.9468 30.4611C59.8595 30.2931 59.8156 30.209 59.8156 30.209C59.8447 30.209 59.8595 30.1922 59.8595 30.1587C59.8886 30.0242 59.874 29.8813 59.8156 29.7301C59.7574 29.5789 59.7135 29.4361 59.6844 29.3016C59.6553 29.2344 59.6408 29.1756 59.6408 29.1251C59.6699 29.0579 59.6844 28.9991 59.6844 28.9488C59.5969 28.7134 59.5678 28.5622 59.5969 28.495C59.6553 28.411 59.6844 28.3269 59.6844 28.2429C59.6553 28.058 59.6408 27.9657 59.6408 27.9657C59.6699 27.9657 59.6844 27.9489 59.6844 27.9152C59.6844 27.6128 59.6553 27.3944 59.5969 27.2599C59.5678 27.1086 59.5387 26.9658 59.5094 26.8314C59.5094 26.6634 59.5094 26.5037 59.5094 26.3525C59.5387 26.1845 59.5532 26.0248 59.5532 25.8736C59.5241 25.7223 59.5241 25.6215 59.5532 25.571C59.6115 25.5038 59.6408 25.4282 59.6408 25.3442C59.4366 25.3442 59.2325 25.3526 59.0283 25.3694C58.8243 25.3863 58.6202 25.3946 58.416 25.3946C58.3285 25.3779 58.2412 25.361 58.1537 25.3442C58.0662 25.3274 57.9641 25.319 57.8475 25.319C57.7308 25.319 57.6288 25.3274 57.5414 25.3442C57.4539 25.361 57.3518 25.3526 57.2352 25.319C57.0895 25.2854 56.9435 25.2434 56.7978 25.193C56.6812 25.1258 56.55 25.0921 56.4042 25.0921C56.4334 24.9913 56.4479 24.8821 56.4479 24.7644C56.4479 24.63 56.4918 24.5208 56.5791 24.4368C56.6375 24.3695 56.6957 24.3276 56.7541 24.3108C56.8416 24.2771 56.9144 24.2351 56.9728 24.1847C57.1477 24.0166 57.2498 23.9159 57.2789 23.8822C57.3082 23.8991 57.4393 23.8991 57.6726 23.8822C57.9059 23.8654 58.1537 23.8487 58.416 23.8318C58.7077 23.7982 58.9701 23.773 59.2033 23.7562C59.4657 23.7394 59.6408 23.731 59.7281 23.731C59.8156 23.731 59.8886 23.7394 59.9468 23.7562C60.0343 23.773 60.1218 23.7898 60.2092 23.8066C60.2385 23.8066 60.3405 23.8066 60.5154 23.8066C60.7195 23.7898 60.9089 23.7814 61.084 23.7814C61.2881 23.7647 61.4775 23.7562 61.6526 23.7562C61.8274 23.7394 61.9295 23.7226 61.9588 23.7058C62.192 23.6554 62.3815 23.647 62.5272 23.6806C62.7022 23.7142 62.8625 23.7142 63.0083 23.6806C63.1542 23.7142 63.2563 23.7562 63.3145 23.8066C63.402 23.8403 63.5332 23.8487 63.708 23.8318C63.7665 23.9326 63.854 24.0335 63.9706 24.1343C64.1163 24.2351 64.2184 24.3359 64.2766 24.4368C64.1018 24.6216 63.9852 24.756 63.9267 24.8401C63.8976 24.9241 63.7956 24.9661 63.6207 24.9661C63.5623 24.9997 63.5186 25.0333 63.4895 25.0669C63.4602 25.1005 63.4166 25.1342 63.3583 25.1677C63.1833 25.1846 63.023 25.2265 62.8771 25.2938C62.7313 25.277 62.5417 25.2686 62.3085 25.2686C62.1045 25.2686 61.9588 25.3105 61.8713 25.3946C61.9004 25.5794 61.8858 25.6887 61.8274 25.7223C61.7983 25.7391 61.7837 25.7643 61.7837 25.7979C61.7837 25.8819 61.7983 25.9659 61.8274 26.05C61.8858 26.1171 61.9149 26.1929 61.9149 26.2769C61.8858 26.4113 61.8858 26.5037 61.9149 26.5541C61.944 26.5878 61.9588 26.6297 61.9588 26.6802C61.9295 26.7137 61.9149 26.7809 61.9149 26.8818C61.9149 26.9658 61.9149 27.0667 61.9149 27.1842C61.944 27.3019 61.9588 27.4195 61.9588 27.5372C61.9879 27.638 62.0025 27.7052 62.0025 27.7389C62.1482 27.7556 62.3085 27.722 62.4835 27.638C62.6877 27.5372 62.8334 27.4615 62.9209 27.4112C63.1251 27.2935 63.2415 27.2431 63.2708 27.2599C63.2999 27.2599 63.3436 27.2514 63.402 27.2347C63.7228 27.2011 63.9413 27.1507 64.0581 27.0835C64.1746 26.9995 64.3496 26.9574 64.5829 26.9574C64.6411 26.9238 64.714 26.8986 64.8016 26.8818C64.8891 26.8481 64.9619 26.8062 65.0203 26.7558C65.2535 26.7222 65.4138 26.6885 65.5013 26.6549C65.5889 26.6046 65.7055 26.5709 65.8512 26.5541C65.9094 26.4869 65.997 26.4448 66.1136 26.4281C66.2302 26.4113 66.3469 26.3945 66.4635 26.3776C66.6676 26.2936 66.8425 26.2264 66.9884 26.176C67.1633 26.1256 67.3674 26.1004 67.6007 26.1004C67.8921 26.0332 68.14 25.9912 68.3441 25.9743C68.5483 25.9408 68.6649 25.9071 68.694 25.8736C68.8397 25.9071 68.9566 25.9071 69.0439 25.8736C69.1605 25.8231 69.2917 25.7812 69.4376 25.7475C69.525 25.7138 69.627 25.7055 69.7437 25.7223C69.8603 25.7223 69.9478 25.6971 70.006 25.6467C70.152 25.6803 70.2686 25.6887 70.3561 25.6719C70.4434 25.6382 70.5601 25.6215 70.7058 25.6215C70.8226 25.6215 70.9245 25.6382 71.012 25.6719C71.1287 25.6887 71.2598 25.6887 71.4056 25.6719C71.5224 25.6719 71.6243 25.6635 71.7118 25.6467C71.7993 25.6131 71.9014 25.6131 72.018 25.6467C72.3386 25.6803 72.5282 25.7138 72.5866 25.7475C72.674 25.7812 72.7469 25.7979 72.8051 25.7979C73.0677 25.8147 73.3155 25.8568 73.5488 25.924C73.8111 25.9743 74.0589 25.9912 74.2922 25.9743C74.5255 26.1256 74.7587 26.2769 74.992 26.4281C75.2252 26.5625 75.3564 26.6297 75.3857 26.6297C75.4148 26.7978 75.5606 26.9406 75.8229 27.0582C75.8229 27.1926 75.9105 27.2935 76.0855 27.3607C76.0855 27.4784 76.1146 27.5624 76.1728 27.6128C76.2604 27.6632 76.3624 27.7304 76.4791 27.8145C76.45 27.8817 76.5082 28.0077 76.6541 28.1925C76.8289 28.3606 76.9601 28.4782 77.0476 28.5455C77.0185 28.5622 77.0185 28.6211 77.0476 28.7218C77.0768 28.8058 77.1059 28.8983 77.1352 28.9991C77.1934 29.1 77.2371 29.1923 77.2664 29.2765C77.3246 29.3604 77.3684 29.4109 77.3975 29.4277C77.3391 29.4949 77.3391 29.5621 77.3975 29.6293C77.4558 29.6798 77.4851 29.7385 77.4851 29.8057C77.4558 29.9906 77.4558 30.125 77.4851 30.209C77.5142 30.2931 77.5433 30.3771 77.5724 30.4611C77.5724 30.562 77.5724 30.7804 77.5724 31.1165C77.5724 31.4358 77.5871 31.7803 77.6162 32.1499C77.6454 32.5196 77.689 32.8641 77.7474 33.1834C77.8056 33.4858 77.8786 33.6707 77.9661 33.7379C77.9077 33.9059 77.9223 34.0152 78.0098 34.0656C78.0682 34.0824 78.1848 34.074 78.3597 34.0404C78.5638 34.0068 78.6514 34.0068 78.6221 34.0404C78.9428 34.0068 79.1179 33.9816 79.147 33.9648C79.2052 33.948 79.2782 33.948 79.3657 33.9648C79.5697 33.9984 79.6865 34.0152 79.7156 34.0152C79.7447 33.9984 79.7883 33.9984 79.8468 34.0152C79.9634 34.0487 80.0509 34.0908 80.1091 34.1412C80.1967 34.1917 80.3133 34.2168 80.459 34.2168C80.4008 34.3345 80.459 34.4437 80.6341 34.5445C80.8089 34.6285 80.838 34.679 80.7214 34.6958L80.7652 34.7462ZM102.939 23.8318C102.969 23.8991 102.925 23.9662 102.808 24.0335C102.692 24.0839 102.662 24.1427 102.721 24.2099C102.662 24.2267 102.59 24.252 102.502 24.2855C102.444 24.3024 102.385 24.3192 102.327 24.336C102.152 24.6048 101.89 24.7393 101.54 24.7393C101.219 24.7393 100.942 24.7141 100.709 24.6636C100.155 24.5292 99.7029 24.4704 99.353 24.4872C99.0322 24.5039 98.7116 24.4956 98.3908 24.462C98.3033 24.4956 98.2597 24.546 98.2597 24.6132C98.2888 24.6804 98.3179 24.7393 98.3472 24.7897C98.2597 24.8401 98.2013 24.9241 98.1721 25.0417C98.143 25.1593 98.1285 25.2518 98.1285 25.319C98.1867 25.3694 98.1867 25.4282 98.1285 25.4954C98.0701 25.5459 98.0264 25.5963 97.9971 25.6467C97.968 25.7812 97.968 25.9071 97.9971 26.0248C98.0555 26.1424 98.0555 26.2601 97.9971 26.3776C98.1721 26.6969 98.3033 26.9406 98.3908 27.1086C98.4784 27.2767 98.5075 27.4531 98.4784 27.638C98.4784 27.722 98.4491 27.8061 98.3908 27.8901C98.3324 27.9741 98.3179 28.0581 98.3472 28.1422C98.3472 28.1925 98.3617 28.2429 98.3908 28.2934C98.4491 28.3438 98.4784 28.4025 98.4784 28.4698C98.42 28.7218 98.4054 28.9067 98.4345 29.0244C98.4929 29.142 98.5075 29.2596 98.4784 29.3772C98.4784 29.4444 98.4929 29.5117 98.522 29.5789C98.5511 29.6293 98.5511 29.6881 98.522 29.7554C98.4345 29.9066 98.3908 30.0157 98.3908 30.0831C98.42 30.1334 98.4345 30.1922 98.4345 30.2594C98.4054 30.4779 98.3617 30.6964 98.3033 30.9148C98.2451 31.1165 98.1867 31.3265 98.1285 31.5449C98.0701 31.713 98.0555 31.8307 98.0846 31.8978C98.143 31.9482 98.1721 31.9987 98.1721 32.0491C98.2013 32.1331 98.2013 32.2424 98.1721 32.3768C98.143 32.4944 98.2013 32.5869 98.3472 32.6541C98.2597 32.7717 98.2304 32.8388 98.2597 32.8557C98.2888 32.8725 98.3179 32.8977 98.3472 32.9313C98.3763 33.0153 98.3472 33.2002 98.2597 33.4858C98.1721 33.7547 98.1285 33.948 98.1285 34.0656C98.1285 34.1496 98.1285 34.242 98.1285 34.3429C98.1576 34.4269 98.143 34.5109 98.0846 34.595C98.1139 34.7797 98.143 34.889 98.1721 34.9227C98.2013 34.9395 98.2158 34.9646 98.2158 34.9983C98.2158 35.1327 98.1867 35.2587 98.1285 35.3763C98.0992 35.4772 98.0992 35.5948 98.1285 35.7293C97.9534 35.8973 97.8659 35.9897 97.8659 36.0065C97.8077 36.1745 97.7347 36.2754 97.6474 36.309C97.589 36.3257 97.589 36.3762 97.6474 36.4602C97.5599 36.4938 97.516 36.5359 97.516 36.5862C97.516 36.6199 97.4869 36.6618 97.4287 36.7123C97.3703 36.8131 97.2973 36.9139 97.21 37.0148C97.1225 37.1323 97.0495 37.25 96.9913 37.3677C96.8163 37.4853 96.6851 37.5945 96.5975 37.6954C96.5102 37.8129 96.3936 37.9138 96.2478 37.9978C95.9562 38.0147 95.8104 38.0314 95.8104 38.0482C95.8104 38.065 95.7813 38.0734 95.7229 38.0734C95.6645 38.107 95.5917 38.1322 95.5042 38.1491C95.446 38.1659 95.3876 38.191 95.3294 38.2247L94.892 38.3506C94.7169 38.4347 94.4254 38.5355 94.0171 38.6532C93.6381 38.7876 93.4049 38.8969 93.3174 38.9809C93.2591 38.9809 93.1716 38.9893 93.055 39.006C92.9384 39.0228 92.8072 39.0481 92.6614 39.0816C92.5448 39.1153 92.4282 39.1405 92.3116 39.1572C92.1949 39.1909 92.122 39.2161 92.0928 39.233C91.9762 39.2497 91.8596 39.2665 91.743 39.2833C91.6263 39.3002 91.5243 39.3253 91.4367 39.359C91.291 39.3253 91.1162 39.3253 90.912 39.359C90.7079 39.4093 90.5183 39.443 90.3434 39.4598C90.1684 39.4598 89.8769 39.4514 89.4686 39.4346C89.0896 39.4177 88.8272 39.3926 88.6815 39.359C88.3607 39.4093 88.142 39.4261 88.0254 39.4093C87.9087 39.3926 87.7776 39.3758 87.6318 39.359C87.1653 39.3253 86.8154 39.3086 86.5822 39.3086C86.3489 39.3086 86.0136 39.2246 85.5762 39.0565L85.1826 38.9053C85.1242 38.8884 85.0514 38.88 84.9639 38.88C84.8764 38.8969 84.8034 38.8884 84.7452 38.8548C84.5702 38.7876 84.3953 38.712 84.2203 38.628C84.0454 38.5439 83.9288 38.4599 83.8704 38.3759C83.8122 38.3422 83.7831 38.2835 83.7831 38.1994C83.8122 38.1322 83.8122 38.0734 83.7831 38.023C83.6955 37.8717 83.5935 37.7205 83.4768 37.5693C83.3602 37.4349 83.229 37.2921 83.0833 37.1407C83.1415 37.0736 83.1561 36.9979 83.1269 36.9139C83.0978 36.8467 83.0685 36.7795 83.0394 36.7123C83.0103 36.5946 83.0103 36.4771 83.0394 36.3594C83.0685 36.2417 83.0978 36.1241 83.1269 36.0065C83.2436 35.9393 83.3602 35.8973 83.4768 35.8805C83.5935 35.8468 83.6371 35.7628 83.608 35.6284C83.7246 35.6116 83.8122 35.5864 83.8704 35.5528C83.9288 35.5191 84.0016 35.4856 84.0891 35.4519C84.2348 35.4688 84.3662 35.4772 84.4828 35.4772C84.5995 35.4604 84.7161 35.4519 84.8327 35.4519C84.9785 35.536 85.1388 35.5948 85.3138 35.6284C85.4886 35.662 85.6491 35.7124 85.7949 35.7796C85.8531 35.8468 85.9115 35.9057 85.9697 35.9561C86.0572 36.0065 86.1156 36.0738 86.1447 36.1577C86.203 36.3426 86.2177 36.519 86.1884 36.6871C86.1884 36.8383 86.2468 37.0063 86.3635 37.1912L86.7133 37.6701C86.83 37.7542 86.9757 37.8045 87.1507 37.8214C87.3256 37.8382 87.4713 37.8802 87.588 37.9473C87.7921 37.9978 87.9233 38.023 87.9817 38.023C88.069 38.0398 88.1129 38.065 88.1129 38.0987C88.2586 38.0818 88.3607 38.0903 88.4189 38.1238C88.5065 38.1743 88.6085 38.1994 88.7252 38.1994C88.8418 38.1491 88.9439 38.1491 89.0314 38.1994C89.1187 38.2499 89.2353 38.2499 89.3813 38.1994C89.4104 38.2499 89.4979 38.275 89.6436 38.275C89.8185 38.275 89.9935 38.2666 90.1684 38.2499C90.3434 38.2331 90.5183 38.2162 90.6933 38.1994C90.8681 38.1826 90.9993 38.1826 91.0868 38.1994C91.3494 38.0987 91.4952 38.0482 91.5243 38.0482C91.5827 38.065 91.6409 38.065 91.6991 38.0482C91.8741 38.0147 92.1365 37.9558 92.4864 37.8717C92.8363 37.7877 93.0404 37.687 93.0987 37.5693C93.3028 37.5693 93.4487 37.5356 93.5361 37.4684C93.6527 37.4181 93.7984 37.3844 93.9735 37.3677C94.0901 37.2837 94.2067 37.2081 94.3234 37.1407C94.4691 37.0736 94.615 37.0063 94.7608 36.9392C94.9065 36.7039 94.994 36.5274 95.0231 36.4098C95.0523 36.2922 95.1543 36.1913 95.3294 36.1073C95.4167 35.9393 95.4751 35.7796 95.5042 35.6284C95.5626 35.4772 95.5917 35.3175 95.5917 35.1495C95.5917 34.9646 95.5772 34.7882 95.5481 34.6201C95.5481 34.4521 95.5626 34.3092 95.5917 34.1917C95.65 34.0068 95.6645 33.9059 95.6354 33.8891C95.6354 33.8556 95.6354 33.8219 95.6354 33.7884C95.6354 33.7715 95.6354 33.7212 95.6354 33.6371C95.6354 33.5531 95.6354 33.4607 95.6354 33.3598C95.6645 33.259 95.6793 33.1665 95.6793 33.0825C95.6793 32.9986 95.6793 32.9481 95.6793 32.9313C95.3585 32.9818 95.0231 33.049 94.6733 33.133C94.3525 33.217 94.0026 33.3095 93.6236 33.4102C93.2737 33.511 92.9384 33.6035 92.6176 33.6875C92.3261 33.7715 92.1804 33.8135 92.1804 33.8135C92.122 33.8135 92.0199 33.8219 91.8741 33.8387C91.7284 33.8387 91.5534 33.8472 91.3494 33.864C91.1744 33.8808 90.9848 33.8975 90.7808 33.9143C90.6058 33.9312 90.4746 33.9396 90.3871 33.9396C90.2996 33.9228 90.0956 33.9312 89.7748 33.9648C89.4833 33.9816 89.2646 33.9816 89.1187 33.9648C89.2353 33.9312 89.3665 33.9143 89.5125 33.9143C89.6582 33.8975 89.8039 33.8808 89.9499 33.864C89.7166 33.7799 89.454 33.7631 89.1626 33.8135C88.8709 33.864 88.6231 33.8387 88.4189 33.7379C88.0399 33.7379 87.7776 33.7212 87.6318 33.6875C87.4859 33.6539 87.3256 33.6203 87.1507 33.5867C87.0048 33.5867 86.8591 33.5951 86.7133 33.6119C86.5967 33.6119 86.4655 33.5951 86.3196 33.5615C86.203 33.5447 86.0863 33.5195 85.9697 33.4858C85.8824 33.4523 85.7803 33.4186 85.6637 33.3851L84.8327 33.1582C84.8327 33.0237 84.7889 32.9481 84.7013 32.9313C84.614 32.9146 84.5265 32.8893 84.439 32.8557C84.0016 32.7044 83.6519 32.57 83.3893 32.4524C83.1269 32.318 82.9373 32.1836 82.8207 32.0491C82.5583 31.9147 82.398 31.8222 82.3396 31.7719C82.2814 31.7047 82.1794 31.6374 82.0336 31.5702C82.0043 31.4861 81.9606 31.4189 81.9022 31.3686C81.844 31.3014 81.7858 31.2256 81.7274 31.1416C81.6399 30.8897 81.5525 30.6208 81.465 30.335C81.3775 30.0326 81.3338 29.7973 81.3338 29.6293C81.3338 29.5621 81.3484 29.5033 81.3775 29.4528C81.4066 29.3856 81.4066 29.31 81.3775 29.226C81.3775 29.1756 81.3484 29.1251 81.29 29.0747C81.2609 29.0244 81.2463 28.9655 81.2463 28.8983C81.2172 28.7974 81.2318 28.663 81.29 28.495C81.3484 28.3101 81.4066 28.1589 81.465 28.0413C81.5232 27.9573 81.5525 27.8817 81.5525 27.8145C81.5816 27.7304 81.6253 27.6464 81.6837 27.5624C81.8586 27.3775 81.9606 27.2683 81.9898 27.2347C82.0191 27.2011 82.0627 27.1758 82.1209 27.1591C82.1793 26.9911 82.2669 26.8566 82.3835 26.7558C82.4417 26.6718 82.5438 26.5625 82.6895 26.4281C82.8646 26.2936 82.9666 26.1929 82.9958 26.1256C83.229 26.0248 83.3748 25.9492 83.4332 25.8987C83.5205 25.8483 83.5789 25.7896 83.608 25.7223C83.8122 25.6719 83.9579 25.5794 84.0454 25.445C84.2203 25.4114 84.3516 25.3526 84.439 25.2686C84.5556 25.1846 84.7161 25.1342 84.92 25.1174C85.0076 25.0333 85.1388 24.9746 85.3138 24.9409C85.4886 24.9072 85.6344 24.8485 85.7512 24.7644C85.9845 24.7309 86.203 24.672 86.4071 24.588C86.6113 24.5039 86.7279 24.4452 86.757 24.4116C87.1944 24.3443 87.6318 24.2939 88.069 24.2603C88.5065 24.2267 88.9439 24.1931 89.3813 24.1595C89.6436 24.0083 89.8623 23.9159 90.0372 23.8822C90.2413 23.8318 90.4455 23.7982 90.6496 23.7814C90.8536 23.7647 91.0432 23.773 91.218 23.8066C91.4222 23.8234 91.5827 23.8654 91.6991 23.9326C91.9033 23.9159 92.1074 23.9243 92.3116 23.9578C92.5157 23.9747 92.7051 23.9662 92.8801 23.9326C93.1425 24.0166 93.3028 24.0755 93.3612 24.1091C93.4487 24.1427 93.5652 24.1511 93.7111 24.1343C93.9444 24.2351 94.1338 24.2855 94.2797 24.2855C94.3088 24.2687 94.44 24.2939 94.6733 24.3611C94.9065 24.4116 95.0523 24.4452 95.1107 24.462C95.2855 24.546 95.4021 24.6048 95.4606 24.6384C95.6063 24.6888 95.6938 24.7393 95.7229 24.7897C95.752 24.8232 95.8104 24.8401 95.8978 24.8401C95.9271 24.8401 95.9562 24.8065 95.9853 24.7393C96.0146 24.672 96.0437 24.6048 96.0728 24.5376C96.1019 24.4536 96.1165 24.378 96.1165 24.3108C96.1458 24.2436 96.1603 24.2015 96.1603 24.1847C96.2186 24.1847 96.2624 24.1595 96.2915 24.1091C96.3206 24.0419 96.4081 23.9999 96.5539 23.9831C96.4957 23.8654 96.5102 23.7982 96.5975 23.7814C96.7144 23.7647 96.7871 23.7142 96.8163 23.6302C97.0788 23.5461 97.2246 23.4958 97.2537 23.4789C97.2828 23.4454 97.2973 23.4033 97.2973 23.3529C97.4724 23.3361 97.6035 23.3025 97.6911 23.2521C97.7786 23.2017 97.8807 23.1428 97.9971 23.0756C98.4345 23.0588 98.8719 23.0421 99.3093 23.0252C99.7467 22.9916 100.184 22.9916 100.621 23.0252C100.709 23.0421 100.796 23.0672 100.884 23.1009C100.971 23.1177 101.059 23.1009 101.146 23.0504C101.205 23.0672 101.263 23.0925 101.321 23.126C101.38 23.1428 101.438 23.1681 101.496 23.2016C101.642 23.1681 101.759 23.1849 101.846 23.2521C101.963 23.3193 102.065 23.3361 102.152 23.3025C102.211 23.3529 102.298 23.3949 102.414 23.4285C102.531 23.4454 102.619 23.4789 102.677 23.5293C102.852 23.6973 102.939 23.7982 102.939 23.8318ZM96.0291 29.4528C96.0583 29.3688 96.0583 29.2848 96.0291 29.2007C96.0291 29.1 96.0146 29.016 95.9853 28.9488C95.9562 28.8815 95.9271 28.8311 95.8978 28.7974C95.8687 28.7471 95.8832 28.6883 95.9416 28.6211C95.9125 28.3857 95.9125 28.1925 95.9416 28.0413C95.9998 27.8733 95.9998 27.722 95.9416 27.5875C95.8832 27.5203 95.8104 27.4784 95.7229 27.4615C95.6645 27.4279 95.6063 27.3859 95.5481 27.3355C95.4606 27.2514 95.373 27.1758 95.2855 27.1086C95.2273 27.0414 95.1543 26.9658 95.0668 26.8818C95.0961 26.7474 95.0523 26.6718 94.9356 26.6549C94.819 26.6213 94.7608 26.5541 94.7608 26.4533C94.7315 26.4533 94.6733 26.4197 94.5857 26.3525C94.4982 26.2852 94.3963 26.218 94.2797 26.1508C94.1631 26.0668 94.0464 25.9912 93.9298 25.924C93.8423 25.8399 93.7839 25.7896 93.7548 25.7727C93.5799 25.7055 93.4924 25.6635 93.4924 25.6467C93.4924 25.6298 93.4633 25.6131 93.4049 25.5963C93.23 25.5291 92.9968 25.487 92.7051 25.4703C92.4427 25.4366 92.2386 25.3694 92.0928 25.2686L91.6554 25.2182C91.5388 25.2014 91.4222 25.193 91.3056 25.193C91.218 25.193 91.1598 25.1846 91.1307 25.1677C91.0723 25.1509 90.9993 25.1342 90.912 25.1174C90.8536 25.1005 90.7808 25.0921 90.6933 25.0921C90.6058 25.0753 90.4455 25.0837 90.2122 25.1174C89.979 25.1342 89.8185 25.1509 89.7312 25.1677C89.4395 25.2518 89.2353 25.2938 89.1187 25.2938C89.0314 25.2938 88.9293 25.3022 88.8127 25.319C88.696 25.3358 88.5356 25.3946 88.3316 25.4954C88.1275 25.5794 87.967 25.6382 87.8505 25.6719C87.7921 25.6719 87.7046 25.6971 87.588 25.7475C87.5005 25.7812 87.3986 25.8231 87.2819 25.8736C87.1944 25.924 87.0923 25.9743 86.9757 26.0248C86.8882 26.0752 86.83 26.1088 86.8007 26.1256L86.4071 26.2516C86.3489 26.386 86.2323 26.4953 86.0572 26.5793C85.9115 26.6465 85.8094 26.7474 85.7512 26.8818C85.5179 26.9995 85.3575 27.0918 85.2699 27.1591C85.1826 27.2095 85.0951 27.2767 85.0076 27.3607C84.8327 27.4784 84.7013 27.6044 84.614 27.7389C84.5265 27.8564 84.4535 27.9573 84.3953 28.0413C84.3662 28.058 84.3223 28.1085 84.2641 28.1925C84.2348 28.2766 84.2057 28.369 84.1766 28.4698C84.1475 28.5706 84.1184 28.6714 84.0891 28.7723C84.0891 28.8563 84.1036 28.9151 84.1329 28.9488C83.987 29.184 83.9288 29.3436 83.9579 29.4277C84.0163 29.4949 84.06 29.5789 84.0891 29.6798C84.1184 29.8142 84.1184 29.957 84.0891 30.1082C84.06 30.2594 84.0891 30.3855 84.1766 30.4864C84.1184 30.5199 84.0891 30.562 84.0891 30.6123C84.1184 30.6627 84.1329 30.7048 84.1329 30.7383C84.1912 30.8392 84.2641 30.94 84.3516 31.0409C84.4681 31.1416 84.5556 31.2509 84.614 31.3686C84.7889 31.4358 84.8909 31.5114 84.92 31.5954C85.0951 31.6289 85.2408 31.6963 85.3575 31.797C85.5032 31.881 85.6637 31.9482 85.8385 31.9987C86.0427 32.0996 86.2468 32.1667 86.451 32.2003C86.6549 32.2171 86.8445 32.2676 87.0194 32.3515C87.1944 32.402 87.3402 32.4355 87.4568 32.4524C87.8651 32.5869 88.317 32.6457 88.8127 32.6288C89.3083 32.5952 89.7457 32.5869 90.1247 32.6036C90.3289 32.5196 90.6058 32.486 90.9557 32.5029C91.3056 32.5196 91.5972 32.5029 91.8305 32.4524C91.9471 32.4355 92.0344 32.4104 92.0928 32.3768C92.1511 32.3432 92.224 32.3096 92.3116 32.2759C92.4864 32.2424 92.603 32.2171 92.6614 32.2003C92.7197 32.1836 92.7781 32.1583 92.8363 32.1247C93.0404 32.0911 93.2591 32.0322 93.4924 31.9482C93.7257 31.8643 93.886 31.8138 93.9735 31.797C94.265 31.6458 94.513 31.5618 94.7169 31.5449C94.8044 31.3601 94.9795 31.2341 95.2418 31.1669C95.5042 31.0828 95.7084 30.9737 95.8541 30.8392C95.8832 30.8056 95.8687 30.7636 95.8104 30.7132C95.7813 30.6627 95.7666 30.6208 95.7666 30.5871C95.8541 30.4359 95.8832 30.335 95.8541 30.2846C95.8541 30.2343 95.8687 30.1922 95.8978 30.1587C96.0146 30.0914 96.0437 30.0157 95.9853 29.9317C95.9562 29.8477 95.9416 29.7721 95.9416 29.7049C95.9416 29.6713 95.9562 29.6293 95.9853 29.5789C96.0146 29.5284 96.0291 29.4865 96.0291 29.4528ZM90.6496 33.8135C90.5621 33.8135 90.4455 33.8135 90.2996 33.8135C90.1538 33.8135 90.0517 33.8387 89.9935 33.8891C90.1101 33.8724 90.2268 33.864 90.3434 33.864C90.46 33.864 90.5621 33.8472 90.6496 33.8135ZM129.312 35.3007C129.254 35.4351 129.181 35.5528 129.094 35.6536C129.006 35.7377 128.933 35.8301 128.875 35.9308C128.729 35.9645 128.583 36.0065 128.438 36.0569C128.321 36.0905 128.175 36.0905 128 36.0569C127.592 36.0905 127.242 36.1157 126.951 36.1326C126.688 36.1326 126.469 36.1073 126.294 36.0569C126.032 36.0905 125.857 36.0989 125.77 36.0821C125.711 36.0485 125.638 36.0401 125.551 36.0569C125.084 36.0401 124.778 36.0569 124.632 36.1073C124.487 36.141 124.312 36.1829 124.108 36.2334C123.904 36.1829 123.787 36.1661 123.758 36.1829C123.729 36.1997 123.685 36.2082 123.626 36.2082L123.233 36.0569C123.175 36.0401 123.102 36.0149 123.014 35.9813C122.927 35.9477 122.854 35.9224 122.796 35.9057C122.854 35.8049 122.81 35.7208 122.664 35.6536C122.548 35.5864 122.46 35.5107 122.402 35.4268C122.431 35.3763 122.446 35.326 122.446 35.2755C122.446 35.2251 122.46 35.1747 122.489 35.1242C122.402 35.0235 122.373 34.9562 122.402 34.9227C122.431 34.889 122.431 34.8554 122.402 34.8218C122.314 34.7209 122.285 34.6622 122.314 34.6453C122.344 34.6285 122.358 34.6034 122.358 34.5697C122.183 34.4353 122.081 34.3681 122.052 34.3681C122.023 34.3513 121.979 34.3597 121.921 34.3933C121.717 34.4941 121.586 34.5529 121.527 34.5697C121.469 34.5865 121.411 34.595 121.352 34.595C121.294 34.6622 121.221 34.6958 121.134 34.6958C121.075 34.6958 121.032 34.7378 121.002 34.8218C120.886 34.8386 120.798 34.8722 120.74 34.9227C120.711 34.9562 120.653 34.9898 120.565 35.0234C120.39 35.0402 120.274 35.0571 120.215 35.0739C120.157 35.0907 120.084 35.0991 119.996 35.0991C119.822 35.1663 119.719 35.1999 119.69 35.1999C119.661 35.1831 119.617 35.1831 119.559 35.1999C119.355 35.2335 119.195 35.2672 119.078 35.3007C118.99 35.3344 118.83 35.3344 118.597 35.3007C118.451 35.3511 118.291 35.3931 118.116 35.4268C117.941 35.4604 117.78 35.4604 117.635 35.4268C117.401 35.5107 117.168 35.5612 116.935 35.578C116.731 35.578 116.498 35.5696 116.235 35.5528C116.177 35.5864 116.06 35.5948 115.885 35.578C115.74 35.5612 115.594 35.5949 115.448 35.6788C115.302 35.6452 115.171 35.6452 115.054 35.6788C114.938 35.6956 114.806 35.7124 114.661 35.7293C114.573 35.7293 114.442 35.7293 114.267 35.7293C114.092 35.7293 113.903 35.7293 113.698 35.7293C113.524 35.7124 113.349 35.7124 113.174 35.7293C113.028 35.7293 112.926 35.7461 112.867 35.7796C112.605 35.6956 112.328 35.6705 112.036 35.704C111.745 35.7208 111.468 35.7124 111.206 35.6788C111.089 35.6452 110.972 35.62 110.856 35.6032C110.768 35.5696 110.666 35.5444 110.549 35.5275C110.433 35.5107 110.243 35.4856 109.981 35.4519C109.748 35.4184 109.602 35.3679 109.544 35.3007C109.194 35.2335 108.946 35.183 108.8 35.1495C108.654 35.0991 108.494 35.0739 108.319 35.0739C108.173 35.0067 108.027 34.9478 107.882 34.8974C107.765 34.8302 107.634 34.7797 107.488 34.7462C107.138 34.6118 106.905 34.5025 106.788 34.4185C106.584 34.3513 106.453 34.3008 106.394 34.2673C106.365 34.2336 106.365 34.2001 106.394 34.1664C106.19 33.9648 105.943 33.8219 105.651 33.7379C105.563 33.6035 105.432 33.4942 105.257 33.4102C105.082 33.3095 104.937 33.2002 104.82 33.0825C104.762 33.0153 104.689 32.9146 104.601 32.7801C104.543 32.6457 104.485 32.5616 104.426 32.528C104.426 32.528 104.412 32.486 104.383 32.402C104.383 32.318 104.368 32.2255 104.339 32.1247C104.31 32.0239 104.281 31.9315 104.251 31.8475C104.222 31.7634 104.193 31.713 104.164 31.6963L104.12 31.3433C104.149 31.2593 104.135 31.1753 104.077 31.0912C104.047 30.9904 104.077 30.9148 104.164 30.8644C104.047 30.7972 104.004 30.7383 104.033 30.6879C104.091 30.6208 104.135 30.5451 104.164 30.4611C104.135 30.3434 104.135 30.2762 104.164 30.2594C104.193 30.2427 104.208 30.2175 104.208 30.1838C104.179 30.0662 104.164 29.9822 104.164 29.9317C104.193 29.8813 104.208 29.8394 104.208 29.8057C104.149 29.604 104.149 29.478 104.208 29.4277C104.266 29.3772 104.324 29.3268 104.383 29.2765L104.295 28.9991C104.412 28.8143 104.485 28.7051 104.514 28.6714C104.543 28.6378 104.558 28.6043 104.558 28.5706C104.616 28.4866 104.63 28.4025 104.601 28.3185C104.572 28.2178 104.616 28.1253 104.732 28.0413C104.674 27.9068 104.66 27.7808 104.689 27.6632C104.718 27.5456 104.762 27.4195 104.82 27.2851C104.878 27.1339 104.922 27.0246 104.951 26.9574C105.01 26.8734 105.01 26.8146 104.951 26.7809C104.805 26.6802 104.528 26.6465 104.12 26.6802C103.712 26.7137 103.42 26.7306 103.246 26.7306C103.041 26.7306 102.837 26.7306 102.633 26.7306C102.458 26.7306 102.269 26.7474 102.065 26.7809C102.006 26.7137 101.919 26.6802 101.802 26.6802C101.715 26.6802 101.613 26.6718 101.496 26.6549C101.38 26.5878 101.292 26.5541 101.234 26.5541C101.146 26.5541 101.073 26.5373 101.015 26.5037C100.957 26.4701 100.913 26.4281 100.884 26.3776C100.826 26.3273 100.782 26.2852 100.753 26.2516C100.607 26.1508 100.519 26.0752 100.49 26.0248C100.432 25.9743 100.447 25.8819 100.534 25.7475C100.621 25.5794 100.723 25.4954 100.84 25.4954C100.928 25.4786 100.957 25.4366 100.928 25.3694C101.044 25.403 101.146 25.403 101.234 25.3694C101.292 25.319 101.365 25.2854 101.452 25.2686C101.54 25.2686 101.656 25.2686 101.802 25.2686C101.948 25.2518 102.065 25.2434 102.152 25.2434C102.444 25.2938 102.59 25.3105 102.59 25.2938C102.619 25.277 102.662 25.2686 102.721 25.2686C103.216 25.3022 103.595 25.3105 103.858 25.2938C104.12 25.2602 104.397 25.2265 104.689 25.193C104.951 25.2098 105.141 25.2349 105.257 25.2686C105.374 25.2854 105.491 25.2854 105.607 25.2686C105.666 25.2686 105.753 25.2602 105.87 25.2434C106.015 25.2265 106.147 25.2098 106.263 25.193C106.409 25.1761 106.54 25.1761 106.657 25.193C106.774 25.193 106.832 25.2265 106.832 25.2938C106.978 25.3105 107.08 25.3442 107.138 25.3946C107.226 25.4282 107.342 25.4619 107.488 25.4954C107.575 25.6299 107.59 25.7138 107.532 25.7475C107.473 25.7643 107.503 25.7896 107.619 25.8231C107.678 25.8903 107.692 25.9912 107.663 26.1256C107.663 26.2601 107.692 26.3441 107.75 26.3776C107.721 26.4113 107.692 26.4701 107.663 26.5541C107.634 26.6381 107.605 26.7306 107.575 26.8314C107.575 26.9322 107.561 27.033 107.532 27.1339C107.532 27.2347 107.532 27.3019 107.532 27.3355C107.561 27.4531 107.546 27.5203 107.488 27.5372C107.459 27.554 107.444 27.5875 107.444 27.638C107.444 27.7052 107.444 27.7808 107.444 27.8648C107.444 27.9321 107.444 27.9824 107.444 28.0161C107.415 28.0833 107.371 28.1337 107.313 28.1673C107.284 28.1841 107.255 28.2094 107.226 28.2429C107.167 28.3269 107.167 28.4278 107.226 28.5455C107.284 28.6462 107.269 28.7387 107.182 28.8227C107.182 29.0244 107.153 29.1672 107.094 29.2512C107.036 29.3352 106.978 29.4109 106.919 29.478C106.89 29.5453 106.861 29.5873 106.832 29.604C106.861 29.7385 106.861 29.8561 106.832 29.957C106.832 30.0578 106.788 30.1671 106.701 30.2846C106.701 30.4695 106.686 30.6039 106.657 30.6879C106.715 30.7383 106.744 30.7972 106.744 30.8644C106.744 30.9148 106.744 30.9737 106.744 31.0409C106.744 31.1585 106.759 31.2341 106.788 31.2677C106.817 31.2845 106.832 31.3097 106.832 31.3433C106.861 31.377 106.861 31.4861 106.832 31.671C106.803 31.8559 106.774 31.9651 106.744 31.9987C106.774 32.0659 106.817 32.1163 106.876 32.1499C106.934 32.1667 106.963 32.2171 106.963 32.3011C107.138 32.5869 107.327 32.7717 107.532 32.8557C107.765 32.9229 107.954 33.0237 108.1 33.1582C108.304 33.3095 108.465 33.4102 108.581 33.4607C108.698 33.4942 108.785 33.5531 108.844 33.6371C108.99 33.6371 109.121 33.6623 109.237 33.7128C109.354 33.7631 109.485 33.7884 109.631 33.7884C109.718 33.8892 109.85 33.9564 110.025 33.99C110.229 34.0236 110.418 34.0487 110.593 34.0656C110.651 34.1496 110.739 34.1832 110.856 34.1664C110.972 34.1496 111.06 34.1412 111.118 34.1412C111.322 34.2252 111.541 34.2589 111.774 34.242C112.007 34.2252 112.226 34.242 112.43 34.2925C112.459 34.2925 112.547 34.2841 112.692 34.2673C112.867 34.2505 113.057 34.242 113.261 34.242C113.465 34.2252 113.655 34.2168 113.83 34.2168C114.005 34.2168 114.121 34.2168 114.179 34.2168C114.558 34.2505 114.865 34.2589 115.098 34.242C115.36 34.2085 115.579 34.1748 115.754 34.1412C115.842 34.1245 115.929 34.1076 116.016 34.0908C116.104 34.0572 116.191 34.032 116.279 34.0152C116.366 34.0152 116.541 34.0152 116.804 34.0152C117.095 33.9984 117.27 33.9816 117.328 33.9648C117.62 33.9312 117.853 33.864 118.028 33.7631C118.232 33.8135 118.349 33.8303 118.378 33.8135C118.437 33.7799 118.495 33.7715 118.553 33.7884C118.903 33.6539 119.151 33.5531 119.297 33.4858C119.442 33.4019 119.632 33.343 119.865 33.3095C120.098 33.1918 120.259 33.0658 120.346 32.9313C120.463 32.9313 120.55 32.8977 120.609 32.8305C120.667 32.7632 120.74 32.7129 120.827 32.6792C120.886 32.6288 120.959 32.5364 121.046 32.402C121.134 32.2676 121.207 32.1331 121.265 31.9987C121.352 31.8475 121.411 31.7047 121.44 31.5702C121.469 31.4358 121.454 31.3349 121.396 31.2677C121.483 31.0828 121.542 30.94 121.571 30.8392C121.629 30.7383 121.629 30.646 121.571 30.562C121.629 30.2259 121.658 29.9317 121.658 29.6798C121.688 29.4277 121.644 29.184 121.527 28.9488C121.673 28.7807 121.717 28.6883 121.658 28.6714C121.6 28.6378 121.571 28.5538 121.571 28.4194C121.6 28.2345 121.586 28.1169 121.527 28.0665C121.498 28.0161 121.483 27.9657 121.483 27.9152C121.425 27.7472 121.411 27.5875 121.44 27.4363C121.498 27.2683 121.513 27.1086 121.483 26.9574C121.338 26.8902 121.163 26.8734 120.959 26.907C120.638 26.8902 120.419 26.907 120.303 26.9574C120.215 26.9911 120.098 26.9911 119.953 26.9574L119.603 26.8062C119.428 26.7558 119.311 26.7053 119.253 26.6549C119.224 26.5878 119.136 26.5457 118.99 26.5289C118.99 26.4617 118.947 26.4197 118.859 26.4029C118.801 26.386 118.757 26.3525 118.728 26.302C118.786 26.2348 118.786 26.176 118.728 26.1256C118.699 26.0752 118.699 26.0248 118.728 25.9743C118.757 25.8903 118.801 25.8315 118.859 25.7979C118.918 25.7475 118.947 25.6803 118.947 25.5963C119.034 25.5626 119.122 25.5542 119.209 25.571C119.326 25.5879 119.442 25.5879 119.559 25.571C119.822 25.5038 119.982 25.4703 120.04 25.4703C120.098 25.4703 120.142 25.4535 120.171 25.4198C120.725 25.4366 121.192 25.4198 121.571 25.3694C121.95 25.3022 122.344 25.277 122.752 25.2938C123.102 25.2265 123.335 25.2098 123.452 25.2434C123.597 25.277 123.743 25.2854 123.889 25.2686C124.122 25.2349 124.253 25.2265 124.283 25.2434C124.312 25.2434 124.355 25.2434 124.414 25.2434C124.676 25.193 124.851 25.1761 124.939 25.193C125.055 25.193 125.157 25.1677 125.245 25.1174C125.332 25.1509 125.405 25.1846 125.463 25.2182C125.551 25.2349 125.624 25.2602 125.682 25.2938C125.974 25.277 126.163 25.319 126.251 25.4198C126.367 25.5207 126.513 25.5794 126.688 25.5963C126.746 25.7643 126.775 25.8819 126.775 25.9492C126.805 26.0164 126.805 26.0668 126.775 26.1004C126.775 26.134 126.746 26.176 126.688 26.2264C126.659 26.2769 126.63 26.3692 126.601 26.5037C126.484 26.5037 126.382 26.5204 126.294 26.5541C126.236 26.5709 126.149 26.6046 126.032 26.6549C125.945 26.6885 125.813 26.7222 125.638 26.7558C125.493 26.7725 125.274 26.7809 124.982 26.7809C124.895 26.7641 124.764 26.7725 124.589 26.8062C124.443 26.823 124.341 26.8314 124.283 26.8314C124.224 26.9154 124.224 26.9995 124.283 27.0835C124.341 27.1675 124.312 27.2514 124.195 27.3355C124.312 27.4868 124.326 27.5875 124.239 27.638C124.181 27.6884 124.151 27.7808 124.151 27.9152C124.21 28.0833 124.239 28.2094 124.239 28.2934C124.268 28.3774 124.253 28.4362 124.195 28.4698C124.253 28.6546 124.297 28.789 124.326 28.8731C124.355 28.9403 124.341 29.0076 124.283 29.0747C124.341 29.1251 124.37 29.1923 124.37 29.2765C124.37 29.3436 124.399 29.394 124.457 29.4277C124.487 29.478 124.428 29.5368 124.283 29.604C124.166 29.6713 124.181 29.8226 124.326 30.0578C124.151 30.3266 124.166 30.6039 124.37 30.8897C124.312 31.0241 124.239 31.1249 124.151 31.1921C124.181 31.2593 124.195 31.3265 124.195 31.3937C124.195 31.4442 124.166 31.503 124.108 31.5702C124.224 31.7047 124.253 31.8054 124.195 31.8726C124.166 31.9231 124.239 32.0155 124.414 32.1499C124.355 32.234 124.355 32.3264 124.414 32.4272C124.472 32.5113 124.545 32.5952 124.632 32.6792C124.632 32.7801 124.618 32.8893 124.589 33.0069C124.589 33.1077 124.603 33.2086 124.632 33.3095C124.662 33.3935 124.691 33.4691 124.72 33.5363C124.778 33.5867 124.764 33.6623 124.676 33.7631C124.822 33.9816 124.895 34.1412 124.895 34.242C124.895 34.3261 124.968 34.3849 125.114 34.4185C125.376 34.5194 125.522 34.5865 125.551 34.6201C125.609 34.6369 125.668 34.6453 125.726 34.6453C125.901 34.6622 126.017 34.6538 126.076 34.6201C126.163 34.5865 126.28 34.5613 126.426 34.5445C126.572 34.5109 126.761 34.4941 126.994 34.4941C127.227 34.4941 127.417 34.4941 127.563 34.4941C127.796 34.5109 127.913 34.5278 127.913 34.5445C127.913 34.5445 127.942 34.5529 128 34.5697C128.263 34.6369 128.423 34.6706 128.481 34.6706C128.569 34.6706 128.656 34.679 128.744 34.6958C128.744 34.7294 128.802 34.7966 128.919 34.8974C129.035 34.9983 129.123 35.0571 129.181 35.0739L129.312 35.3007ZM150.262 34.1917C150.145 34.4101 150.029 34.5445 149.912 34.595C149.795 34.6285 149.722 34.6958 149.693 34.7966C149.402 34.8134 149.154 34.8722 148.95 34.973C148.775 35.0571 148.454 35.0907 147.987 35.0739C147.521 34.9898 147.142 34.9562 146.85 34.973C146.588 34.9898 146.311 34.9983 146.019 34.9983C145.961 34.9983 145.888 34.9983 145.801 34.9983C145.713 34.9814 145.64 34.973 145.582 34.973C145.495 34.973 145.407 34.9814 145.32 34.9983C145.261 35.0151 145.203 35.0234 145.145 35.0234C144.999 34.9898 144.853 34.9478 144.707 34.8974C144.591 34.847 144.445 34.8134 144.27 34.7966C144.27 34.7462 144.284 34.7125 144.314 34.6958C144.343 34.6622 144.343 34.6118 144.314 34.5445C144.284 34.4773 144.241 34.4353 144.182 34.4185C144.124 34.3849 144.08 34.3429 144.051 34.2925C144.11 34.242 144.139 34.1496 144.139 34.0152C144.168 33.864 144.168 33.7128 144.139 33.5615C144.11 33.3935 144.08 33.2338 144.051 33.0825C144.051 32.9313 144.066 32.8137 144.095 32.7297C143.92 32.7632 143.803 32.8221 143.745 32.9062C143.687 32.9902 143.556 33.0406 143.351 33.0574C143.264 33.1414 143.162 33.2254 143.045 33.3095C142.929 33.3766 142.812 33.4523 142.695 33.5363C142.316 33.6875 141.908 33.8303 141.471 33.9648C141.063 34.0824 140.786 34.2085 140.64 34.3429C140.173 34.3764 139.823 34.4689 139.59 34.6201C139.211 34.6874 138.949 34.7294 138.803 34.7462C138.686 34.763 138.599 34.805 138.54 34.8722C138.307 34.8386 138.089 34.8554 137.884 34.9227C137.71 34.973 137.52 35.0067 137.316 35.0234C137.199 35.0402 137.126 35.0655 137.097 35.0991C137.097 35.1327 137.053 35.1579 136.966 35.1747C136.879 35.1747 136.776 35.1831 136.66 35.1999C136.543 35.1999 136.456 35.2167 136.397 35.2503C136.281 35.2167 136.12 35.1915 135.916 35.1747C135.712 35.1411 135.494 35.1158 135.26 35.0991C135.056 35.0655 134.867 35.0402 134.692 35.0234C134.517 35.0067 134.429 34.9983 134.429 34.9983C134.284 34.9478 134.167 34.9311 134.079 34.9478C134.021 34.9478 133.963 34.9478 133.904 34.9478C133.759 34.9142 133.628 34.889 133.511 34.8722C133.394 34.8386 133.263 34.8218 133.117 34.8218C133.001 34.7378 132.855 34.6874 132.68 34.6706C132.534 34.6369 132.374 34.6118 132.199 34.595C132.111 34.5109 132.009 34.4437 131.893 34.3933C131.805 34.3429 131.747 34.2673 131.718 34.1664C131.368 34.0656 131.12 33.9648 130.974 33.864C130.828 33.7463 130.726 33.6371 130.668 33.5363C130.61 33.4186 130.551 33.3095 130.493 33.2086C130.435 33.0909 130.347 32.9818 130.231 32.8809C130.172 32.6625 130.158 32.5029 130.187 32.402C130.245 32.3011 130.245 32.2087 130.187 32.1247C130.187 32.108 130.216 32.0407 130.274 31.9231C130.362 31.8054 130.449 31.6794 130.537 31.5449C130.653 31.3937 130.755 31.2593 130.843 31.1416C130.96 31.0072 131.047 30.9316 131.105 30.9148C131.105 30.898 131.12 30.856 131.149 30.7888C131.207 30.7216 131.266 30.646 131.324 30.562C131.382 30.4611 131.426 30.3771 131.455 30.3099C131.514 30.2259 131.557 30.1754 131.586 30.1587C131.645 30.0914 131.718 30.0326 131.805 29.9822C131.922 29.9317 131.966 29.8645 131.936 29.7805C132.111 29.6798 132.213 29.5873 132.242 29.5033C132.447 29.4193 132.549 29.3268 132.549 29.226C132.928 29.0747 133.248 28.9235 133.511 28.7723C133.773 28.6211 133.977 28.537 134.123 28.5202C134.385 28.4025 134.561 28.3269 134.648 28.2934C134.765 28.2597 134.881 28.2261 134.998 28.1925C135.085 28.1757 135.144 28.1505 135.173 28.1169C135.202 28.0665 135.246 28.0245 135.304 27.9908C135.596 27.9236 135.887 27.8228 136.179 27.6884C136.441 27.6547 136.602 27.6296 136.66 27.6128C136.747 27.5959 136.82 27.5708 136.879 27.5372C137.345 27.5035 137.753 27.4028 138.103 27.2347C138.307 27.2179 138.526 27.1926 138.759 27.1591C138.992 27.1255 139.211 27.0918 139.415 27.0582C139.619 27.0582 139.765 27.0414 139.853 27.0079C140.028 27.0246 140.188 27.0246 140.334 27.0079C140.509 26.9742 140.683 26.949 140.859 26.9322C141.092 27.033 141.281 27.0835 141.427 27.0835C141.865 27.0835 142.171 27.1086 142.346 27.1591C142.52 27.2095 142.725 27.2179 142.958 27.1842C143.016 27.2179 143.089 27.2347 143.177 27.2347C143.264 27.2347 143.337 27.2514 143.395 27.2851C143.424 27.2347 143.41 27.1591 143.351 27.0582C143.322 26.9406 143.264 26.865 143.177 26.8314C143.147 26.7809 143.133 26.7306 143.133 26.6802C143.133 26.6129 143.118 26.5625 143.089 26.5289C142.914 26.3776 142.798 26.2685 142.739 26.2012C142.681 26.134 142.623 26.0752 142.564 26.0248C142.418 25.9071 142.258 25.8063 142.083 25.7223C141.937 25.6215 141.792 25.5207 141.646 25.4198C141.238 25.3863 140.902 25.3442 140.64 25.2938C140.407 25.2434 140.086 25.2349 139.678 25.2686C139.386 25.2182 139.211 25.2014 139.153 25.2182C139.095 25.2349 139.036 25.2434 138.978 25.2434C138.657 25.2265 138.468 25.2265 138.409 25.2434C138.38 25.2602 138.336 25.2686 138.278 25.2686C137.986 25.2518 137.68 25.2686 137.36 25.319C137.039 25.3526 136.879 25.3779 136.879 25.3946C136.674 25.3779 136.412 25.403 136.091 25.4703C135.77 25.5207 135.581 25.5626 135.523 25.5963C135.406 25.6635 135.26 25.7055 135.085 25.7223C134.94 25.7223 134.837 25.7391 134.779 25.7727C134.663 25.8231 134.531 25.8903 134.385 25.9743C134.24 26.0584 134.138 26.1424 134.079 26.2264C133.934 26.2432 133.817 26.2769 133.73 26.3273C133.642 26.3776 133.54 26.4197 133.423 26.4533C133.394 26.6045 133.292 26.7222 133.117 26.8062C132.971 26.8902 132.884 27.0162 132.855 27.1842C132.592 27.2011 132.49 27.3019 132.549 27.4868C132.315 27.47 132.155 27.5035 132.068 27.5875C132.009 27.6716 131.878 27.7304 131.674 27.764C131.557 27.7472 131.382 27.7052 131.149 27.638C130.945 27.554 130.799 27.4868 130.712 27.4363C130.653 27.3523 130.624 27.2599 130.624 27.1591C130.653 27.0414 130.697 26.9154 130.755 26.7809C130.814 26.6465 130.872 26.5289 130.93 26.4281C131.018 26.3104 131.076 26.2516 131.105 26.2516C131.076 26.2012 131.091 26.1424 131.149 26.0752C131.207 25.9912 131.28 25.9071 131.368 25.8231C131.455 25.7223 131.543 25.6382 131.63 25.571C131.747 25.5038 131.849 25.4619 131.936 25.445C132.053 25.3779 132.155 25.3022 132.242 25.2182C132.33 25.1342 132.432 25.0586 132.549 24.9913C132.782 24.8905 132.942 24.8065 133.03 24.7393C133.205 24.7225 133.321 24.6888 133.38 24.6384C133.467 24.5713 133.555 24.5039 133.642 24.4368C133.904 24.4032 134.05 24.3864 134.079 24.3864C134.109 24.3695 134.138 24.3443 134.167 24.3108C134.488 24.2771 134.721 24.2267 134.867 24.1595C135.042 24.0922 135.217 24.0671 135.391 24.0839C135.537 23.9999 135.727 23.9494 135.96 23.9326C136.193 23.9159 136.383 23.8738 136.529 23.8066C136.529 23.8066 136.602 23.8066 136.747 23.8066C136.893 23.7898 137.053 23.7814 137.228 23.7814C137.403 23.7647 137.564 23.7478 137.71 23.731C137.855 23.7142 137.928 23.7058 137.928 23.7058C138.016 23.6889 138.118 23.6722 138.234 23.6554C138.351 23.6217 138.453 23.6133 138.54 23.6302C138.949 23.6973 139.226 23.7226 139.371 23.7058C139.517 23.6889 139.678 23.6638 139.853 23.6302C140.057 23.6806 140.173 23.6973 140.202 23.6806C140.261 23.6638 140.319 23.6554 140.377 23.6554C140.611 23.6722 140.742 23.6889 140.771 23.7058C140.8 23.7226 140.961 23.7226 141.252 23.7058C141.31 23.7394 141.383 23.7562 141.471 23.7562C141.587 23.7394 141.675 23.731 141.733 23.731C141.996 23.8318 142.141 23.8738 142.171 23.857C142.229 23.8234 142.287 23.8066 142.346 23.8066C142.52 23.9075 142.681 23.9747 142.827 24.0083C143.002 24.025 143.191 24.0671 143.395 24.1343C143.599 24.2351 143.716 24.2855 143.745 24.2855C143.803 24.2855 143.862 24.2939 143.92 24.3108C144.095 24.5124 144.255 24.6384 144.401 24.6888C144.576 24.7393 144.736 24.7897 144.882 24.8401C144.911 24.9072 144.941 24.9661 144.97 25.0165C145.028 25.0669 145.072 25.1342 145.101 25.2182C145.188 25.2686 145.247 25.3105 145.276 25.3442C145.305 25.361 145.349 25.4114 145.407 25.4954C145.524 25.6131 145.611 25.6971 145.669 25.7475C145.728 25.7979 145.786 25.8483 145.844 25.8987C145.99 26.0668 146.078 26.2432 146.107 26.4281C146.165 26.5962 146.223 26.7306 146.282 26.8314C146.253 26.8481 146.253 26.8902 146.282 26.9574C146.311 27.0246 146.34 27.1002 146.369 27.1842C146.428 27.2683 146.471 27.3523 146.5 27.4363C146.559 27.5035 146.588 27.554 146.588 27.5875C146.559 27.722 146.588 27.8733 146.675 28.0413C146.763 28.2094 146.821 28.3185 146.85 28.369C146.734 28.453 146.69 28.5538 146.719 28.6714C146.778 28.7723 146.807 28.8731 146.807 28.9739C146.807 29.0244 146.792 29.0747 146.763 29.1251C146.734 29.1588 146.719 29.1923 146.719 29.226C146.748 29.3604 146.748 29.4361 146.719 29.4528C146.719 29.4696 146.719 29.4949 146.719 29.5284C146.778 29.7133 146.792 29.831 146.763 29.8813C146.763 29.9317 146.763 29.9738 146.763 30.0073C146.763 30.2594 146.807 30.5115 146.894 30.7636C146.981 30.9988 147.04 31.2341 147.069 31.4693C147.069 31.587 147.054 31.7047 147.025 31.8222C146.996 31.9231 146.981 32.0239 146.981 32.1247C146.952 32.3599 146.938 32.5952 146.938 32.8305C146.967 33.0658 147.011 33.301 147.069 33.5363C147.127 33.5531 147.244 33.5615 147.419 33.5615C147.623 33.5615 147.754 33.5447 147.813 33.511C148.075 33.5447 148.221 33.5531 148.25 33.5363C148.279 33.5026 148.352 33.4858 148.469 33.4858C148.585 33.4691 148.658 33.4775 148.687 33.511C148.746 33.5279 148.833 33.5447 148.95 33.5615C149.037 33.5783 149.125 33.5867 149.212 33.5867C149.329 33.5698 149.431 33.5698 149.518 33.5867C149.635 33.6203 149.751 33.6791 149.868 33.7631C150.014 33.8472 150.116 33.8891 150.174 33.8891C150.262 34.0572 150.291 34.158 150.262 34.1917ZM144.182 29.7049C144.212 29.52 144.139 29.3436 143.964 29.1756C143.789 29.0076 143.541 28.8899 143.22 28.8227C142.841 28.7387 142.448 28.6462 142.039 28.5455C141.631 28.4446 141.223 28.3857 140.815 28.369C140.727 28.369 140.64 28.3774 140.552 28.3941C140.494 28.3941 140.421 28.3941 140.334 28.3941C140.159 28.3941 139.984 28.4025 139.809 28.4194C139.634 28.4194 139.459 28.4362 139.284 28.4698C139.109 28.5034 138.934 28.5455 138.759 28.5958C138.613 28.6294 138.468 28.663 138.322 28.6967C138.205 28.7302 138.089 28.7471 137.972 28.7471C137.855 28.7471 137.739 28.7639 137.622 28.7974C137.447 28.8311 137.243 28.9067 137.01 29.0244C136.806 29.1251 136.5 29.2176 136.091 29.3016C135.946 29.3521 135.843 29.3772 135.785 29.3772C135.756 29.3772 135.712 29.394 135.654 29.4277C135.537 29.4612 135.45 29.52 135.391 29.604C135.333 29.6713 135.231 29.7301 135.085 29.7805L134.561 29.9317C134.415 30.0157 134.269 30.1166 134.123 30.2343C134.007 30.335 133.875 30.4275 133.73 30.5115C133.671 30.5451 133.613 30.5787 133.555 30.6123C133.525 30.646 133.482 30.6795 133.423 30.7132C133.423 30.73 133.38 30.8223 133.292 30.9904C133.205 31.1416 133.103 31.3181 132.986 31.5198C132.899 31.7047 132.811 31.881 132.724 32.0491C132.636 32.2003 132.592 32.2759 132.592 32.2759C132.592 32.3936 132.651 32.5532 132.767 32.7549C132.913 32.9397 133.03 33.0825 133.117 33.1834C133.176 33.217 133.292 33.2674 133.467 33.3346C133.671 33.4019 133.803 33.4523 133.861 33.4858C134.211 33.6203 134.473 33.6959 134.648 33.7128C134.823 33.7128 134.983 33.7547 135.129 33.8387C135.217 33.8219 135.289 33.8219 135.348 33.8387C135.435 33.8556 135.523 33.8472 135.61 33.8135C135.669 33.864 135.727 33.8891 135.785 33.8891C135.873 33.8724 135.96 33.864 136.048 33.864C136.339 33.864 136.558 33.8472 136.704 33.8135C136.849 33.7799 137.024 33.7799 137.228 33.8135C137.287 33.7463 137.374 33.7212 137.491 33.7379C137.607 33.7379 137.71 33.7212 137.797 33.6875C137.884 33.6539 137.972 33.6287 138.059 33.6119C138.147 33.5783 138.234 33.5447 138.322 33.511C138.584 33.5447 138.817 33.511 139.022 33.4102C139.255 33.2926 139.503 33.2254 139.765 33.2086C139.94 33.0742 140.188 32.9649 140.509 32.8809C140.859 32.7969 141.063 32.6709 141.121 32.5029C141.296 32.5029 141.398 32.4692 141.427 32.402C141.485 32.318 141.587 32.2676 141.733 32.2508C141.85 32.1499 141.967 32.0911 142.083 32.0743C142.229 32.0071 142.346 31.9399 142.433 31.8726C142.55 31.8054 142.637 31.755 142.695 31.7214C142.841 31.671 142.972 31.6289 143.089 31.5954C143.206 31.5282 143.322 31.4777 143.439 31.4442C143.468 31.4105 143.57 31.3433 143.745 31.2425C143.92 31.1249 144.008 31.0409 144.008 30.9904C144.008 30.856 143.978 30.7216 143.92 30.5871C143.862 30.4359 143.847 30.3015 143.876 30.1838C143.876 30.0998 143.92 30.0242 144.008 29.957C144.095 29.8729 144.153 29.7889 144.182 29.7049ZM172.655 23.8318C172.684 23.8991 172.64 23.9662 172.524 24.0335C172.407 24.0839 172.378 24.1427 172.436 24.2099C172.378 24.2267 172.305 24.252 172.217 24.2855C172.159 24.3024 172.101 24.3192 172.042 24.336C171.867 24.6048 171.605 24.7393 171.255 24.7393C170.934 24.7393 170.657 24.7141 170.424 24.6636C169.87 24.5292 169.418 24.4704 169.068 24.4872C168.748 24.5039 168.427 24.4956 168.106 24.462C168.019 24.4956 167.975 24.546 167.975 24.6132C168.004 24.6804 168.033 24.7393 168.062 24.7897C167.975 24.8401 167.917 24.9241 167.887 25.0417C167.858 25.1593 167.844 25.2518 167.844 25.319C167.902 25.3694 167.902 25.4282 167.844 25.4954C167.785 25.5459 167.742 25.5963 167.712 25.6467C167.683 25.7812 167.683 25.9071 167.712 26.0248C167.771 26.1424 167.771 26.2601 167.712 26.3776C167.887 26.6969 168.019 26.9406 168.106 27.1086C168.193 27.2767 168.223 27.4531 168.193 27.638C168.193 27.722 168.164 27.8061 168.106 27.8901C168.048 27.9741 168.033 28.0581 168.062 28.1422C168.062 28.1925 168.077 28.2429 168.106 28.2934C168.164 28.3438 168.193 28.4025 168.193 28.4698C168.135 28.7218 168.121 28.9067 168.15 29.0244C168.208 29.142 168.223 29.2596 168.193 29.3772C168.193 29.4444 168.208 29.5117 168.237 29.5789C168.266 29.6293 168.266 29.6881 168.237 29.7554C168.15 29.9066 168.106 30.0157 168.106 30.0831C168.135 30.1334 168.15 30.1922 168.15 30.2594C168.121 30.4779 168.077 30.6964 168.019 30.9148C167.96 31.1165 167.902 31.3265 167.844 31.5449C167.785 31.713 167.771 31.8307 167.8 31.8978C167.858 31.9482 167.887 31.9987 167.887 32.0491C167.917 32.1331 167.917 32.2424 167.887 32.3768C167.858 32.4944 167.917 32.5869 168.062 32.6541C167.975 32.7717 167.946 32.8388 167.975 32.8557C168.004 32.8725 168.033 32.8977 168.062 32.9313C168.092 33.0153 168.062 33.2002 167.975 33.4858C167.887 33.7547 167.844 33.948 167.844 34.0656C167.844 34.1496 167.844 34.242 167.844 34.3429C167.873 34.4269 167.858 34.5109 167.8 34.595C167.829 34.7797 167.858 34.889 167.887 34.9227C167.917 34.9395 167.931 34.9646 167.931 34.9983C167.931 35.1327 167.902 35.2587 167.844 35.3763C167.814 35.4772 167.814 35.5948 167.844 35.7293C167.669 35.8973 167.581 35.9897 167.581 36.0065C167.523 36.1745 167.45 36.2754 167.363 36.309C167.304 36.3257 167.304 36.3762 167.363 36.4602C167.275 36.4938 167.231 36.5359 167.231 36.5862C167.231 36.6199 167.202 36.6618 167.144 36.7123C167.086 36.8131 167.013 36.9139 166.925 37.0148C166.838 37.1323 166.765 37.25 166.707 37.3677C166.532 37.4853 166.4 37.5945 166.313 37.6954C166.226 37.8129 166.109 37.9138 165.963 37.9978C165.671 38.0147 165.526 38.0314 165.526 38.0482C165.526 38.065 165.496 38.0734 165.438 38.0734C165.38 38.107 165.307 38.1322 165.22 38.1491C165.161 38.1659 165.103 38.191 165.044 38.2247L164.607 38.3506C164.432 38.4347 164.141 38.5355 163.732 38.6532C163.353 38.7876 163.12 38.8969 163.033 38.9809C162.974 38.9809 162.887 38.9893 162.77 39.006C162.654 39.0228 162.522 39.0481 162.377 39.0816C162.26 39.1153 162.143 39.1405 162.027 39.1572C161.91 39.1909 161.837 39.2161 161.808 39.233C161.692 39.2497 161.575 39.2665 161.458 39.2833C161.342 39.3002 161.24 39.3253 161.152 39.359C161.006 39.3253 160.831 39.3253 160.627 39.359C160.423 39.4093 160.234 39.443 160.059 39.4598C159.884 39.4598 159.592 39.4514 159.184 39.4346C158.805 39.4177 158.543 39.3926 158.397 39.359C158.076 39.4093 157.857 39.4261 157.741 39.4093C157.624 39.3926 157.493 39.3758 157.347 39.359C156.88 39.3253 156.531 39.3086 156.297 39.3086C156.064 39.3086 155.729 39.2246 155.291 39.0565L154.898 38.9053C154.84 38.8884 154.767 38.88 154.679 38.88C154.592 38.8969 154.519 38.8884 154.461 38.8548C154.285 38.7876 154.111 38.712 153.936 38.628C153.761 38.5439 153.644 38.4599 153.586 38.3759C153.527 38.3422 153.498 38.2835 153.498 38.1994C153.527 38.1322 153.527 38.0734 153.498 38.023C153.411 37.8717 153.309 37.7205 153.192 37.5693C153.076 37.4349 152.944 37.2921 152.798 37.1407C152.857 37.0736 152.871 36.9979 152.842 36.9139C152.813 36.8467 152.784 36.7795 152.755 36.7123C152.726 36.5946 152.726 36.4771 152.755 36.3594C152.784 36.2417 152.813 36.1241 152.842 36.0065C152.959 35.9393 153.076 35.8973 153.192 35.8805C153.309 35.8468 153.352 35.7628 153.323 35.6284C153.44 35.6116 153.527 35.5864 153.586 35.5528C153.644 35.5191 153.717 35.4856 153.804 35.4519C153.95 35.4688 154.081 35.4772 154.198 35.4772C154.315 35.4604 154.431 35.4519 154.548 35.4519C154.694 35.536 154.854 35.5948 155.029 35.6284C155.204 35.662 155.364 35.7124 155.51 35.7796C155.568 35.8468 155.627 35.9057 155.685 35.9561C155.773 36.0065 155.831 36.0738 155.86 36.1577C155.918 36.3426 155.933 36.519 155.904 36.6871C155.904 36.8383 155.962 37.0063 156.079 37.1912L156.429 37.6701C156.545 37.7542 156.691 37.8045 156.866 37.8214C157.041 37.8382 157.187 37.8802 157.303 37.9473C157.507 37.9978 157.639 38.023 157.697 38.023C157.784 38.0398 157.828 38.065 157.828 38.0987C157.974 38.0818 158.076 38.0903 158.134 38.1238C158.222 38.1743 158.324 38.1994 158.44 38.1994C158.557 38.1491 158.659 38.1491 158.746 38.1994C158.834 38.2499 158.951 38.2499 159.096 38.1994C159.126 38.2499 159.213 38.275 159.359 38.275C159.534 38.275 159.709 38.2666 159.884 38.2499C160.059 38.2331 160.234 38.2162 160.409 38.1994C160.583 38.1826 160.715 38.1826 160.802 38.1994C161.065 38.0987 161.21 38.0482 161.24 38.0482C161.298 38.065 161.356 38.065 161.414 38.0482C161.589 38.0147 161.852 37.9558 162.202 37.8717C162.552 37.7877 162.756 37.687 162.814 37.5693C163.018 37.5693 163.164 37.5356 163.251 37.4684C163.368 37.4181 163.514 37.3844 163.689 37.3677C163.805 37.2837 163.922 37.2081 164.039 37.1407C164.184 37.0736 164.33 37.0063 164.476 36.9392C164.622 36.7039 164.709 36.5274 164.738 36.4098C164.768 36.2922 164.87 36.1913 165.044 36.1073C165.132 35.9393 165.19 35.7796 165.22 35.6284C165.278 35.4772 165.307 35.3175 165.307 35.1495C165.307 34.9646 165.292 34.7882 165.263 34.6201C165.263 34.4521 165.278 34.3092 165.307 34.1917C165.365 34.0068 165.38 33.9059 165.351 33.8891C165.351 33.8556 165.351 33.8219 165.351 33.7884C165.351 33.7715 165.351 33.7212 165.351 33.6371C165.351 33.5531 165.351 33.4607 165.351 33.3598C165.38 33.259 165.394 33.1665 165.394 33.0825C165.394 32.9986 165.394 32.9481 165.394 32.9313C165.074 32.9818 164.738 33.049 164.389 33.133C164.068 33.217 163.718 33.3095 163.339 33.4102C162.989 33.511 162.654 33.6035 162.333 33.6875C162.041 33.7715 161.895 33.8135 161.895 33.8135C161.837 33.8135 161.735 33.8219 161.589 33.8387C161.444 33.8387 161.269 33.8472 161.065 33.864C160.89 33.8808 160.7 33.8975 160.496 33.9143C160.321 33.9312 160.19 33.9396 160.102 33.9396C160.015 33.9228 159.811 33.9312 159.49 33.9648C159.198 33.9816 158.98 33.9816 158.834 33.9648C158.951 33.9312 159.082 33.9143 159.228 33.9143C159.373 33.8975 159.519 33.8808 159.665 33.864C159.432 33.7799 159.169 33.7631 158.878 33.8135C158.586 33.864 158.338 33.8387 158.134 33.7379C157.755 33.7379 157.493 33.7212 157.347 33.6875C157.201 33.6539 157.041 33.6203 156.866 33.5867C156.72 33.5867 156.574 33.5951 156.429 33.6119C156.312 33.6119 156.181 33.5951 156.035 33.5615C155.918 33.5447 155.802 33.5195 155.685 33.4858C155.597 33.4523 155.496 33.4186 155.379 33.3851L154.548 33.1582C154.548 33.0237 154.504 32.9481 154.417 32.9313C154.329 32.9146 154.242 32.8893 154.154 32.8557C153.717 32.7044 153.367 32.57 153.105 32.4524C152.842 32.318 152.653 32.1836 152.536 32.0491C152.274 31.9147 152.113 31.8222 152.055 31.7719C151.997 31.7047 151.895 31.6374 151.749 31.5702C151.72 31.4861 151.676 31.4189 151.618 31.3686C151.559 31.3014 151.501 31.2256 151.443 31.1416C151.355 30.8897 151.268 30.6208 151.18 30.335C151.093 30.0326 151.049 29.7973 151.049 29.6293C151.049 29.5621 151.064 29.5033 151.093 29.4528C151.122 29.3856 151.122 29.31 151.093 29.226C151.093 29.1756 151.064 29.1251 151.005 29.0747C150.976 29.0244 150.962 28.9655 150.962 28.8983C150.932 28.7974 150.947 28.663 151.005 28.495C151.064 28.3101 151.122 28.1589 151.18 28.0413C151.239 27.9573 151.268 27.8817 151.268 27.8145C151.297 27.7304 151.341 27.6464 151.399 27.5624C151.574 27.3775 151.676 27.2683 151.705 27.2347C151.734 27.2011 151.778 27.1758 151.836 27.1591C151.895 26.9911 151.982 26.8566 152.099 26.7558C152.157 26.6718 152.259 26.5625 152.405 26.4281C152.58 26.2936 152.682 26.1929 152.711 26.1256C152.944 26.0248 153.09 25.9492 153.148 25.8987C153.236 25.8483 153.294 25.7896 153.323 25.7223C153.527 25.6719 153.673 25.5794 153.761 25.445C153.936 25.4114 154.067 25.3526 154.154 25.2686C154.271 25.1846 154.431 25.1342 154.635 25.1174C154.723 25.0333 154.854 24.9746 155.029 24.9409C155.204 24.9072 155.35 24.8485 155.466 24.7644C155.7 24.7309 155.918 24.672 156.122 24.588C156.327 24.5039 156.443 24.4452 156.472 24.4116C156.91 24.3443 157.347 24.2939 157.784 24.2603C158.222 24.2267 158.659 24.1931 159.096 24.1595C159.359 24.0083 159.577 23.9159 159.752 23.8822C159.957 23.8318 160.161 23.7982 160.365 23.7814C160.569 23.7647 160.758 23.773 160.933 23.8066C161.137 23.8234 161.298 23.8654 161.414 23.9326C161.619 23.9159 161.823 23.9243 162.027 23.9578C162.231 23.9747 162.42 23.9662 162.595 23.9326C162.858 24.0166 163.018 24.0755 163.076 24.1091C163.164 24.1427 163.28 24.1511 163.426 24.1343C163.66 24.2351 163.849 24.2855 163.995 24.2855C164.024 24.2687 164.155 24.2939 164.389 24.3611C164.622 24.4116 164.768 24.4452 164.826 24.462C165.001 24.546 165.117 24.6048 165.176 24.6384C165.322 24.6888 165.409 24.7393 165.438 24.7897C165.467 24.8232 165.526 24.8401 165.613 24.8401C165.642 24.8401 165.671 24.8065 165.701 24.7393C165.73 24.672 165.759 24.6048 165.788 24.5376C165.817 24.4536 165.832 24.378 165.832 24.3108C165.861 24.2436 165.875 24.2015 165.875 24.1847C165.934 24.1847 165.978 24.1595 166.007 24.1091C166.036 24.0419 166.123 23.9999 166.269 23.9831C166.211 23.8654 166.226 23.7982 166.313 23.7814C166.429 23.7647 166.502 23.7142 166.532 23.6302C166.794 23.5461 166.94 23.4958 166.969 23.4789C166.998 23.4454 167.013 23.4033 167.013 23.3529C167.188 23.3361 167.319 23.3025 167.406 23.2521C167.494 23.2017 167.596 23.1428 167.712 23.0756C168.15 23.0588 168.587 23.0421 169.025 23.0252C169.462 22.9916 169.899 22.9916 170.337 23.0252C170.424 23.0421 170.512 23.0672 170.599 23.1009C170.687 23.1177 170.774 23.1009 170.861 23.0504C170.92 23.0672 170.978 23.0925 171.036 23.126C171.095 23.1428 171.153 23.1681 171.211 23.2016C171.357 23.1681 171.474 23.1849 171.561 23.2521C171.678 23.3193 171.78 23.3361 171.867 23.3025C171.926 23.3529 172.013 23.3949 172.13 23.4285C172.246 23.4454 172.334 23.4789 172.392 23.5293C172.567 23.6973 172.655 23.7982 172.655 23.8318ZM165.744 29.4528C165.774 29.3688 165.774 29.2848 165.744 29.2007C165.744 29.1 165.73 29.016 165.701 28.9488C165.671 28.8815 165.642 28.8311 165.613 28.7974C165.584 28.7471 165.599 28.6883 165.657 28.6211C165.628 28.3857 165.628 28.1925 165.657 28.0413C165.715 27.8733 165.715 27.722 165.657 27.5875C165.599 27.5203 165.526 27.4784 165.438 27.4615C165.38 27.4279 165.322 27.3859 165.263 27.3355C165.176 27.2514 165.088 27.1758 165.001 27.1086C164.942 27.0414 164.87 26.9658 164.782 26.8818C164.811 26.7474 164.768 26.6718 164.651 26.6549C164.534 26.6213 164.476 26.5541 164.476 26.4533C164.447 26.4533 164.389 26.4197 164.301 26.3525C164.214 26.2852 164.111 26.218 163.995 26.1508C163.878 26.0668 163.762 25.9912 163.645 25.924C163.558 25.8399 163.499 25.7896 163.47 25.7727C163.295 25.7055 163.208 25.6635 163.208 25.6467C163.208 25.6298 163.178 25.6131 163.12 25.5963C162.945 25.5291 162.712 25.487 162.42 25.4703C162.158 25.4366 161.954 25.3694 161.808 25.2686L161.371 25.2182C161.254 25.2014 161.137 25.193 161.021 25.193C160.933 25.193 160.875 25.1846 160.846 25.1677C160.788 25.1509 160.715 25.1342 160.627 25.1174C160.569 25.1005 160.496 25.0921 160.409 25.0921C160.321 25.0753 160.161 25.0837 159.928 25.1174C159.694 25.1342 159.534 25.1509 159.446 25.1677C159.155 25.2518 158.951 25.2938 158.834 25.2938C158.746 25.2938 158.644 25.3022 158.528 25.319C158.411 25.3358 158.251 25.3946 158.047 25.4954C157.843 25.5794 157.682 25.6382 157.566 25.6719C157.507 25.6719 157.42 25.6971 157.303 25.7475C157.216 25.7812 157.114 25.8231 156.997 25.8736C156.91 25.924 156.808 25.9743 156.691 26.0248C156.603 26.0752 156.545 26.1088 156.516 26.1256L156.122 26.2516C156.064 26.386 155.947 26.4953 155.773 26.5793C155.627 26.6465 155.525 26.7474 155.466 26.8818C155.233 26.9995 155.073 27.0918 154.985 27.1591C154.898 27.2095 154.81 27.2767 154.723 27.3607C154.548 27.4784 154.417 27.6044 154.329 27.7389C154.242 27.8564 154.169 27.9573 154.111 28.0413C154.081 28.058 154.038 28.1085 153.979 28.1925C153.95 28.2766 153.921 28.369 153.892 28.4698C153.863 28.5706 153.834 28.6714 153.804 28.7723C153.804 28.8563 153.819 28.9151 153.848 28.9488C153.702 29.184 153.644 29.3436 153.673 29.4277C153.731 29.4949 153.775 29.5789 153.804 29.6798C153.834 29.8142 153.834 29.957 153.804 30.1082C153.775 30.2594 153.804 30.3855 153.892 30.4864C153.834 30.5199 153.804 30.562 153.804 30.6123C153.834 30.6627 153.848 30.7048 153.848 30.7383C153.906 30.8392 153.979 30.94 154.067 31.0409C154.183 31.1416 154.271 31.2509 154.329 31.3686C154.504 31.4358 154.606 31.5114 154.635 31.5954C154.81 31.6289 154.956 31.6963 155.073 31.797C155.219 31.881 155.379 31.9482 155.554 31.9987C155.758 32.0996 155.962 32.1667 156.166 32.2003C156.37 32.2171 156.56 32.2676 156.735 32.3515C156.91 32.402 157.055 32.4355 157.172 32.4524C157.58 32.5869 158.032 32.6457 158.528 32.6288C159.024 32.5952 159.461 32.5869 159.84 32.6036C160.044 32.5196 160.321 32.486 160.671 32.5029C161.021 32.5196 161.312 32.5029 161.546 32.4524C161.662 32.4355 161.75 32.4104 161.808 32.3768C161.866 32.3432 161.939 32.3096 162.027 32.2759C162.202 32.2424 162.318 32.2171 162.377 32.2003C162.435 32.1836 162.493 32.1583 162.552 32.1247C162.756 32.0911 162.974 32.0322 163.208 31.9482C163.441 31.8643 163.601 31.8138 163.689 31.797C163.98 31.6458 164.228 31.5618 164.432 31.5449C164.52 31.3601 164.695 31.2341 164.957 31.1669C165.22 31.0828 165.424 30.9737 165.569 30.8392C165.599 30.8056 165.584 30.7636 165.526 30.7132C165.496 30.6627 165.482 30.6208 165.482 30.5871C165.569 30.4359 165.599 30.335 165.569 30.2846C165.569 30.2343 165.584 30.1922 165.613 30.1587C165.73 30.0914 165.759 30.0157 165.701 29.9317C165.671 29.8477 165.657 29.7721 165.657 29.7049C165.657 29.6713 165.671 29.6293 165.701 29.5789C165.73 29.5284 165.744 29.4865 165.744 29.4528ZM160.365 33.8135C160.277 33.8135 160.161 33.8135 160.015 33.8135C159.869 33.8135 159.767 33.8387 159.709 33.8891C159.825 33.8724 159.942 33.864 160.059 33.864C160.175 33.864 160.277 33.8472 160.365 33.8135ZM189.843 32.1752C189.785 32.2592 189.77 32.3515 189.799 32.4524C189.828 32.5364 189.828 32.6204 189.799 32.7044C189.741 32.7885 189.653 32.8641 189.537 32.9313C189.449 32.9818 189.435 33.0574 189.493 33.1582C189.435 33.1918 189.347 33.2421 189.231 33.3095C189.114 33.3766 188.997 33.4523 188.881 33.5363C188.764 33.6035 188.662 33.6707 188.575 33.7379C188.487 33.8052 188.443 33.8472 188.443 33.864C188.239 33.8975 188.064 33.9564 187.919 34.0404C187.773 34.1076 187.627 34.1832 187.481 34.2673C187.423 34.2841 187.35 34.3008 187.262 34.3176C187.175 34.3176 187.117 34.3429 187.087 34.3933C186.942 34.3933 186.825 34.4185 186.738 34.4689C186.679 34.5194 186.592 34.5613 186.475 34.595C186.359 34.6285 186.256 34.6538 186.169 34.6706C186.082 34.6874 185.98 34.7209 185.863 34.7714C185.717 34.7546 185.528 34.763 185.294 34.7966C185.032 34.8639 184.813 34.9311 184.638 34.9983C184.492 34.9646 184.39 34.9646 184.332 34.9983C184.274 35.0151 184.186 35.0402 184.07 35.0739C183.836 35.0739 183.691 35.0823 183.632 35.0991C183.603 35.1158 183.559 35.1327 183.501 35.1495C183.239 35.2167 183.064 35.2419 182.976 35.2251C182.889 35.2083 182.831 35.2335 182.801 35.3007C182.568 35.3007 182.35 35.3091 182.145 35.326C181.97 35.326 181.766 35.3175 181.533 35.3007C181.271 35.2839 181.11 35.2839 181.052 35.3007C180.994 35.3175 180.935 35.326 180.877 35.326C180.819 35.326 180.702 35.3344 180.527 35.3511C180.352 35.3511 180.148 35.3511 179.915 35.3511C179.711 35.3511 179.521 35.3511 179.346 35.3511C179.171 35.3344 179.069 35.326 179.04 35.326C178.69 35.2419 178.457 35.1999 178.34 35.1999C178.224 35.1831 178.092 35.1579 177.947 35.1242C177.859 35.1074 177.728 35.0739 177.553 35.0234C177.407 34.973 177.247 34.9227 177.072 34.8722C176.897 34.8218 176.722 34.7797 176.547 34.7462C176.401 34.6958 176.299 34.6538 176.241 34.6201C175.891 34.5194 175.672 34.4269 175.585 34.3429C175.497 34.2589 175.352 34.2085 175.148 34.1917C175.177 34.158 175.118 34.1076 174.973 34.0404C174.856 33.9564 174.783 33.9228 174.754 33.9396C174.754 33.8556 174.637 33.7212 174.404 33.5363C174.2 33.3346 174.04 33.2086 173.923 33.1582C173.894 33.0237 173.821 32.9229 173.704 32.8557C173.617 32.7717 173.5 32.6876 173.354 32.6036C173.325 32.4524 173.252 32.3096 173.136 32.1752C173.019 32.0239 172.961 31.8643 172.961 31.6963C172.932 31.6289 172.888 31.587 172.83 31.5702C172.8 31.5533 172.771 31.5198 172.742 31.4693C172.655 31.2005 172.611 31.066 172.611 31.066C172.582 30.898 172.553 30.8139 172.524 30.8139C172.494 30.7972 172.48 30.7804 172.48 30.7636C172.451 30.7132 172.436 30.6543 172.436 30.5871C172.436 30.5031 172.436 30.4443 172.436 30.4106C172.494 30.2594 172.509 30.1671 172.48 30.1334C172.48 30.0998 172.48 30.0662 172.48 30.0326C172.509 29.8477 172.494 29.7133 172.436 29.6293C172.378 29.5453 172.407 29.4528 172.524 29.3521C172.465 29.2007 172.451 29.1167 172.48 29.1C172.509 29.0663 172.524 29.0327 172.524 28.9991C172.524 28.8311 172.538 28.7218 172.567 28.6714C172.625 28.6211 172.684 28.5706 172.742 28.5202C172.771 28.4698 172.815 28.3941 172.873 28.2934C172.932 28.1757 172.975 28.0917 173.005 28.0413C173.063 27.8901 173.106 27.7304 173.136 27.5624C173.194 27.3775 173.267 27.2095 173.354 27.0582C173.5 26.8398 173.588 26.7137 173.617 26.6802C173.763 26.5457 173.879 26.4281 173.967 26.3273C174.083 26.2096 174.215 26.1088 174.36 26.0248C174.419 25.9743 174.477 25.9324 174.535 25.8987C174.623 25.8652 174.696 25.8231 174.754 25.7727C174.871 25.6887 174.958 25.6131 175.016 25.5459C175.104 25.4786 175.235 25.4282 175.41 25.3946C175.497 25.3105 175.556 25.2518 175.585 25.2182C175.614 25.1677 175.716 25.1258 175.891 25.0921C176.095 25.0081 176.241 24.9157 176.328 24.8149C176.445 24.7141 176.649 24.6469 176.941 24.6132C177.057 24.5292 177.159 24.462 177.247 24.4116C177.364 24.3443 177.524 24.3024 177.728 24.2855C178.078 24.1847 178.282 24.1006 178.34 24.0335C178.399 23.9662 178.501 23.8991 178.646 23.8318C178.792 23.8318 178.909 23.815 178.996 23.7814C179.084 23.7478 179.186 23.7226 179.303 23.7058C179.711 23.6722 180.148 23.6638 180.615 23.6806C181.11 23.6806 181.562 23.6806 181.97 23.6806C182.379 23.731 182.626 23.7478 182.714 23.731C182.831 23.6973 182.962 23.6973 183.107 23.731C183.253 23.7647 183.385 23.7982 183.501 23.8318C183.618 23.8654 183.749 23.8991 183.895 23.9326C184.128 23.9326 184.303 23.9578 184.42 24.0083C184.565 24.0419 184.769 24.0419 185.032 24.0083C185.236 24.0922 185.338 24.1427 185.338 24.1595C185.367 24.1763 185.411 24.1931 185.469 24.2099C185.848 24.2771 186.154 24.3611 186.388 24.462C186.621 24.546 186.781 24.6132 186.869 24.6636C186.927 24.7981 186.986 24.8821 187.044 24.9157C187.102 24.9493 187.175 24.9746 187.262 24.9913C187.321 25.0417 187.35 25.1005 187.35 25.1677C187.35 25.2349 187.423 25.277 187.569 25.2938C187.539 25.3946 187.554 25.4703 187.612 25.5207C187.7 25.571 187.773 25.6382 187.831 25.7223C187.977 25.8399 188.079 25.9324 188.137 25.9996C188.196 26.05 188.225 26.1171 188.225 26.2012C188.225 26.2348 188.254 26.2769 188.312 26.3273C188.4 26.3608 188.458 26.3945 188.487 26.4281C188.575 26.5793 188.604 26.6634 188.575 26.6802C188.545 26.6969 188.545 26.7222 188.575 26.7558C188.633 26.823 188.691 26.8818 188.75 26.9322C188.808 26.9658 188.852 27.0079 188.881 27.0582C188.939 27.1423 188.954 27.2263 188.924 27.3103C188.924 27.3944 188.954 27.4784 189.012 27.5624C189.07 27.68 189.129 27.8061 189.187 27.9405C189.245 28.0749 189.318 28.1925 189.405 28.2934C189.405 28.4614 189.42 28.5538 189.449 28.5706C189.478 28.5706 189.493 28.5874 189.493 28.6211C189.464 28.6378 189.42 28.6883 189.362 28.7723C189.333 28.8395 189.303 28.8731 189.274 28.8731C189.391 29.0076 189.405 29.1167 189.318 29.2007L188.968 29.4277C188.852 29.4444 188.691 29.4949 188.487 29.5789C188.312 29.6461 188.21 29.7133 188.181 29.7805C187.948 29.7973 187.787 29.7973 187.7 29.7805C187.641 29.7637 187.569 29.7637 187.481 29.7805C187.219 29.8477 187.029 29.8813 186.913 29.8813C186.796 29.8813 186.665 29.8982 186.519 29.9317C186.432 29.8982 186.329 29.8813 186.213 29.8813C186.096 29.8813 185.994 29.8729 185.907 29.8561C185.644 29.8561 185.498 29.8477 185.469 29.831C185.44 29.8142 185.396 29.8057 185.338 29.8057C185.192 29.8057 185.047 29.8142 184.901 29.831C184.784 29.831 184.653 29.831 184.507 29.831C184.42 29.831 184.332 29.831 184.245 29.831C184.186 29.8142 184.113 29.8057 184.026 29.8057C183.822 29.8226 183.676 29.8226 183.589 29.8057C183.501 29.7889 183.414 29.7805 183.326 29.7805C183.151 29.7805 182.976 29.7889 182.801 29.8057C182.656 29.8226 182.495 29.831 182.32 29.831C181.883 29.831 181.446 29.7973 181.008 29.7301C180.571 29.6461 180.148 29.6124 179.74 29.6293C179.682 29.6293 179.609 29.6377 179.521 29.6545C179.434 29.6545 179.361 29.6545 179.303 29.6545C179.04 29.604 178.88 29.5873 178.822 29.604C178.763 29.6209 178.705 29.6293 178.646 29.6293C178.501 29.6293 178.355 29.6209 178.209 29.604C178.063 29.5705 177.918 29.5621 177.772 29.5789C177.684 29.5789 177.611 29.5873 177.553 29.604C177.495 29.604 177.422 29.6124 177.334 29.6293C177.189 29.6461 177.043 29.6461 176.897 29.6293C176.78 29.6124 176.649 29.604 176.503 29.604C176.27 29.604 176.037 29.6209 175.804 29.6545C175.6 29.6713 175.381 29.6713 175.148 29.6545C175.089 29.7049 175.075 29.7637 175.104 29.831C175.133 29.8982 175.148 29.957 175.148 30.0073C175.148 30.209 175.162 30.335 175.191 30.3855C175.221 30.4359 175.25 30.4947 175.279 30.562C175.308 30.5955 175.308 30.646 175.279 30.7132C175.279 30.7636 175.293 30.8056 175.323 30.8392C175.352 30.8897 175.381 30.94 175.41 30.9904C175.439 31.0241 175.468 31.0576 175.497 31.0912C175.497 31.2593 175.527 31.4105 175.585 31.5449C175.672 31.6626 175.76 31.7886 175.847 31.9231C175.935 32.0575 176.022 32.1836 176.11 32.3011C176.197 32.4188 176.27 32.486 176.328 32.5029C176.387 32.5869 176.416 32.6709 176.416 32.7549C176.416 32.8221 176.503 32.8809 176.678 32.9313C176.824 32.9986 176.912 33.0574 176.941 33.1077C176.97 33.1414 177.014 33.175 177.072 33.2086C177.189 33.3095 177.261 33.3598 177.291 33.3598C177.349 33.343 177.407 33.3851 177.466 33.4858C177.816 33.5363 178.02 33.6035 178.078 33.6875C178.165 33.7379 178.224 33.7715 178.253 33.7884C178.311 33.7884 178.37 33.8052 178.428 33.8387C178.749 33.8052 178.953 33.8135 179.04 33.864C179.128 33.9143 179.288 33.9564 179.521 33.99C179.638 34.0068 179.856 34.0152 180.177 34.0152C180.498 34.0152 180.833 34.0152 181.183 34.0152C181.533 33.9984 181.868 33.9816 182.189 33.9648C182.51 33.9312 182.729 33.9059 182.845 33.8891C183.341 33.7884 183.734 33.7295 184.026 33.7128C184.318 33.6791 184.595 33.6203 184.857 33.5363C185.119 33.4523 185.294 33.4102 185.382 33.4102C185.498 33.4102 185.615 33.3935 185.732 33.3598C185.79 33.3262 185.819 33.301 185.819 33.2842C185.848 33.2674 185.965 33.2506 186.169 33.2338C186.198 33.217 186.271 33.1665 186.388 33.0825C186.504 32.9986 186.621 32.9146 186.738 32.8305C186.883 32.7297 187 32.6373 187.087 32.5532C187.204 32.4692 187.277 32.4104 187.306 32.3768C187.394 32.3264 187.481 32.2843 187.569 32.2508C187.685 32.2003 187.744 32.1331 187.744 32.0491C187.977 32.0155 188.137 31.9315 188.225 31.797C188.37 31.797 188.502 31.7803 188.618 31.7466C188.735 31.713 188.866 31.6794 189.012 31.6458C189.129 31.6626 189.216 31.6963 189.274 31.7466C189.333 31.7803 189.42 31.8138 189.537 31.8475C189.595 31.8978 189.639 31.9482 189.668 31.9987C189.726 32.0491 189.785 32.108 189.843 32.1752ZM187.044 28.3185C187.073 28.201 187.044 28.1001 186.956 28.0161C186.869 27.9152 186.811 27.8061 186.781 27.6884C186.665 27.5203 186.563 27.3607 186.475 27.2095C186.388 27.0414 186.315 26.9237 186.257 26.8566C186.198 26.7893 186.125 26.739 186.038 26.7053C185.95 26.6718 185.921 26.6129 185.95 26.5289C185.892 26.5289 185.775 26.4448 185.601 26.2769C185.426 26.1088 185.323 26.008 185.294 25.9743C185.149 25.8399 185.003 25.7559 184.857 25.7223C184.799 25.6887 184.755 25.6467 184.726 25.5963C184.726 25.5459 184.668 25.5123 184.551 25.4954C184.347 25.445 184.157 25.403 183.982 25.3694C183.807 25.3358 183.691 25.2938 183.632 25.2434C183.516 25.2434 183.414 25.2349 183.326 25.2182C183.268 25.2014 183.195 25.2014 183.107 25.2182C182.67 25.0837 182.35 25.0165 182.145 25.0165C181.97 25.0165 181.781 25.0333 181.577 25.0669C181.519 25.0165 181.373 24.9913 181.139 24.9913C180.935 24.9746 180.789 24.983 180.702 25.0165C180.615 25.0333 180.527 25.0417 180.44 25.0417C180.352 25.0249 180.265 25.0165 180.177 25.0165C180.119 25.0669 180.031 25.0921 179.915 25.0921C179.827 25.0921 179.755 25.109 179.696 25.1426C179.55 25.1761 179.419 25.2265 179.303 25.2938C179.215 25.3442 179.084 25.3526 178.909 25.319C178.792 25.403 178.719 25.445 178.69 25.445C178.661 25.445 178.588 25.4619 178.471 25.4954C178.326 25.5963 178.238 25.6467 178.209 25.6467C178.18 25.6467 178.136 25.6551 178.078 25.6719C177.99 25.7055 177.918 25.7559 177.859 25.8231C177.83 25.8736 177.786 25.9156 177.728 25.9492C177.611 26.0332 177.393 26.176 177.072 26.3776C176.78 26.5625 176.562 26.6802 176.416 26.7306C176.358 26.8146 176.299 26.8986 176.241 26.9826C176.183 27.0667 176.095 27.1507 175.979 27.2347C175.862 27.3691 175.745 27.5372 175.629 27.7389C175.541 27.9405 175.512 28.0581 175.541 28.0917C175.57 28.1085 175.643 28.1253 175.76 28.1422C175.906 28.1422 176.066 28.1505 176.241 28.1673C176.416 28.1673 176.576 28.1673 176.722 28.1673C176.868 28.1673 176.97 28.1673 177.028 28.1673C177.466 28.1001 177.786 28.0749 177.99 28.0917C178.195 28.0917 178.399 28.0749 178.603 28.0413C178.865 28.1085 179.04 28.1253 179.128 28.0917C179.215 28.0581 179.361 28.0413 179.565 28.0413C179.798 28.0413 180.061 28.0581 180.352 28.0917C180.673 28.1253 180.862 28.1505 180.921 28.1673C181.621 28.2513 182.204 28.3185 182.67 28.369C183.137 28.4025 183.589 28.3774 184.026 28.2934C184.113 28.3438 184.201 28.3606 184.288 28.3438C184.376 28.3269 184.478 28.3185 184.595 28.3185C184.624 28.3522 184.697 28.369 184.813 28.369C184.93 28.369 185.061 28.369 185.207 28.369C185.353 28.3522 185.484 28.3438 185.601 28.3438C185.746 28.3269 185.848 28.3185 185.907 28.3185C186.082 28.3018 186.271 28.3101 186.475 28.3438C186.679 28.3606 186.869 28.3522 187.044 28.3185Z" fill="#FEF5E7"/>
<path d="M178.812 48.783H216.134" stroke="white"/>
<path d="M10 49H47.3214" stroke="white"/>
<path d="M58.8168 44.0553V41.7925H63.6238V44.0553H58.8168ZM60.1156 43.4444H62.325V42.3345H60.1156V43.4444ZM55.428 54.6981V52.2633H59.4139V47.8409H55.428V45.4061H63.6238V52.2633H67.6097V54.6981H55.428ZM56.5775 54.0356H66.4751V52.9344H62.3996V46.0513H56.5775V47.1612H60.4888V52.9344H56.5775V54.0356ZM69.9191 54.6981V47.1784L72.9944 45.4061H81.1753L84.2506 47.1784V54.6981H80.0407V48.3658L79.1301 47.8409H75.0396L74.129 48.3658V54.6981H69.9191ZM71.0836 54.0356H72.9944V48.0474L74.547 47.1698H79.6675L81.1902 48.0388V54.0356H83.1011V47.5054L80.5931 46.06H73.6065L71.0836 47.514V54.0356ZM95.7527 45.4061H99.9774V51.7384L100.888 52.2633H103.127L104.038 51.7384V45.9223H108.263V51.7384L109.173 52.2633H111.413L112.323 51.7384V45.4061H116.548V52.9258L113.473 54.6981H107.696L106.158 53.8206L104.605 54.6981H98.828L95.7527 52.9258V45.4061ZM96.9171 46.06V52.5988L99.44 54.0529H104.232L106.158 52.9516L108.084 54.0529H112.876L115.399 52.5988V46.06H113.488V52.0654L111.935 52.9516H108.741L107.113 52.0224V46.5332H105.202V52.0224L103.575 52.9516H100.381L98.828 52.0654V46.06H96.9171ZM122.912 54.6981L119.837 52.9258V47.1784L122.912 45.4061H132.242L135.317 47.1784V52.9258L132.242 54.6981H122.912ZM123.599 54.0356H131.66L134.168 52.5902V47.5054L131.66 46.06H123.539L121.016 47.514V52.5472L123.599 54.0356ZM124.539 52.9344L122.927 52.0138V48.0474L124.479 47.1698H130.719L132.242 48.0388V52.0568L130.719 52.9344H124.539ZM124.972 52.2633H130.182L131.093 51.7384V48.3658L130.182 47.8409H124.972L124.061 48.3658V51.7384L124.972 52.2633ZM138.614 54.6981V52.2719H141.51V47.9614L141.286 47.8323H138.644V45.4061H142.421L143.436 46.0944L144.585 45.4061H150.393L153.662 47.2903L150.407 49.1143L148.347 47.8409H146.645L145.735 48.3658V52.2805H148.631V54.6981H138.614ZM139.704 54.0356H147.556V52.9344H144.585V47.9872L145.974 47.187H149.019L150.572 48.1679L152.05 47.3333L149.945 46.0858H145.033L143.51 46.9806L142.092 46.0858H139.719V47.187H141.659L142.66 47.8151V52.9344H139.704V54.0356ZM167.239 54.6981H158.849L155.758 52.9258V47.1784L158.849 45.4061H165.805L166.104 45.5695V41.7925H170.329V52.9258L167.239 54.6981ZM165.671 52.9516H160.461L158.864 52.031V47.97L160.312 47.144H165.253L167.268 48.2969V52.031L165.671 52.9516ZM165.193 52.2633L166.104 51.7384V48.5292L164.91 47.8323H160.894L159.983 48.3658V51.7384L160.894 52.2633H165.193ZM166.597 54.0529L169.194 52.5644V42.4378H167.268V46.9892L165.611 46.0341H159.386L156.938 47.4366V52.5644L159.535 54.0529H166.597Z" fill="white"/>
</svg>
